<svg id="Camada_1" data-name="Camada 1" xmlns="http://www.w3.org/2000/svg" viewBox="0 0 200 50"><defs><style>.cls-1{fill:#4789cf;}.cls-2{fill:#0071bc;}.cls-3{fill:#fff;}</style></defs><title>botao-soh-azul</title><rect class="cls-1" x="1.5" y="1.5" width="197" height="47"/><path class="cls-2" d="M197,3V47H3V3H197m3-3H0V50H200V0Z"/><path class="cls-3" d="M16.5,13.73h3.19l4.39,13.86h.05l4.49-13.86h3.11l-6,17.51H22.34Z"/><path class="cls-3" d="M33.4,13.73h2.8v2.65H33.4Zm0,4.83h2.8V31.24H33.4Z"/><path class="cls-3" d="M41.35,27.17a2.11,2.11,0,0,0,.93,1.72,3.66,3.66,0,0,0,1.94.49,7.51,7.51,0,0,0,.89-.06,3.68,3.68,0,0,0,1-.24,1.76,1.76,0,0,0,.72-.5,1.23,1.23,0,0,0,.26-.87,1.26,1.26,0,0,0-.39-.88,2.59,2.59,0,0,0-.95-.55,9.07,9.07,0,0,0-1.31-.36c-.49-.1-1-.2-1.5-.32a12.45,12.45,0,0,1-1.51-.42,4.82,4.82,0,0,1-1.3-.66,3.08,3.08,0,0,1-.92-1.07,3.48,3.48,0,0,1-.34-1.6,2.92,2.92,0,0,1,.5-1.73A3.87,3.87,0,0,1,40.6,19a5.32,5.32,0,0,1,1.72-.6,10.5,10.5,0,0,1,1.8-.17,8.27,8.27,0,0,1,1.88.21,5.28,5.28,0,0,1,1.62.67,4,4,0,0,1,1.2,1.22,4.08,4.08,0,0,1,.6,1.8H46.5a1.75,1.75,0,0,0-.92-1.35,3.82,3.82,0,0,0-1.66-.34,6.41,6.41,0,0,0-.7,0,3.68,3.68,0,0,0-.76.19,1.73,1.73,0,0,0-.6.39,1,1,0,0,0-.24.68,1.08,1.08,0,0,0,.35.83,2.9,2.9,0,0,0,.94.53,9.13,9.13,0,0,0,1.31.35l1.52.32c.51.12,1,.26,1.49.42a4.67,4.67,0,0,1,1.32.66,3.28,3.28,0,0,1,.93,1.06,3.12,3.12,0,0,1,.35,1.57,3.42,3.42,0,0,1-.51,1.91A4,4,0,0,1,48,30.65a6,6,0,0,1-1.82.72,9.86,9.86,0,0,1-2,.22A8.66,8.66,0,0,1,42,31.32a5.35,5.35,0,0,1-1.77-.82A4,4,0,0,1,39,29.12a4.52,4.52,0,0,1-.45-1.95Z"/><path class="cls-3" d="M52,13.73h2.8v2.65H52Zm0,4.83h2.8V31.24H52Z"/><path class="cls-3" d="M56.6,18.56h2.11v-3.8h2.8v3.8H64v2.09H61.51v6.77a5.72,5.72,0,0,0,0,.76,1.27,1.27,0,0,0,.17.54.88.88,0,0,0,.4.33,2.1,2.1,0,0,0,.74.11h.59a3.13,3.13,0,0,0,.59-.09v2.16l-.91.1a8.92,8.92,0,0,1-.91.05,6.19,6.19,0,0,1-1.78-.21,2.35,2.35,0,0,1-1-.62,2.17,2.17,0,0,1-.52-1,8.06,8.06,0,0,1-.16-1.4V20.65H56.6Z"/><path class="cls-3" d="M68.23,25.63a4.83,4.83,0,0,0,.21,1.42,3.44,3.44,0,0,0,.63,1.2,2.87,2.87,0,0,0,1.05.82,3.93,3.93,0,0,0,3.5-.22,3.13,3.13,0,0,0,1.11-1.58h2.65a5.25,5.25,0,0,1-2.06,3.2,5.38,5.38,0,0,1-1.7.83A7.19,7.19,0,0,1,69,31.1,5.49,5.49,0,0,1,67,29.72a5.84,5.84,0,0,1-1.2-2.11,8.55,8.55,0,0,1-.4-2.7,7.81,7.81,0,0,1,.42-2.56,6.61,6.61,0,0,1,1.23-2.13A5.7,5.7,0,0,1,69,18.76a5.82,5.82,0,0,1,2.55-.54,5.75,5.75,0,0,1,2.68.62,5.92,5.92,0,0,1,2,1.66,6.78,6.78,0,0,1,1.14,2.37,7.09,7.09,0,0,1,.18,2.76Zm6.53-1.84a4.58,4.58,0,0,0-.29-1.28,3.36,3.36,0,0,0-.63-1.07,3.26,3.26,0,0,0-1-.73,2.9,2.9,0,0,0-1.29-.28,3.4,3.4,0,0,0-1.34.25,3.11,3.11,0,0,0-1,.71,3.71,3.71,0,0,0-.69,1.07,3.85,3.85,0,0,0-.28,1.33Z"/><path class="cls-3" d="M88.69,25.63a4.83,4.83,0,0,0,.21,1.42,3.59,3.59,0,0,0,.62,1.2,3,3,0,0,0,1.06.82,3.91,3.91,0,0,0,3.49-.22,3.14,3.14,0,0,0,1.12-1.58h2.65a5.3,5.3,0,0,1-.76,1.84,5.34,5.34,0,0,1-3,2.19,6.75,6.75,0,0,1-2,.29,6.84,6.84,0,0,1-2.65-.49,5.49,5.49,0,0,1-2-1.38,5.84,5.84,0,0,1-1.2-2.11,8.54,8.54,0,0,1-.41-2.7,7.82,7.82,0,0,1,.43-2.56,6.61,6.61,0,0,1,1.23-2.13,5.77,5.77,0,0,1,1.92-1.46A5.9,5.9,0,0,1,92,18.22a5.75,5.75,0,0,1,2.68.62,6,6,0,0,1,2,1.66,6.78,6.78,0,0,1,1.14,2.37A7.49,7.49,0,0,1,98,25.63Zm6.52-1.84a4.25,4.25,0,0,0-.28-1.28,3.39,3.39,0,0,0-.64-1.07,3.14,3.14,0,0,0-1-.73A2.83,2.83,0,0,0,92,20.43a3.37,3.37,0,0,0-1.34.25,3,3,0,0,0-1,.71A3.51,3.51,0,0,0,89,22.46a3.63,3.63,0,0,0-.28,1.33Z"/><path class="cls-3" d="M112,13.73h3.26l6.75,17.51h-3.29l-1.64-4.63h-7l-1.65,4.63h-3.16ZM111,24.28h5.35l-2.63-7.53h-.07Z"/><path class="cls-3" d="M123.4,13.73h2.79V31.24H123.4Z"/><path class="cls-3" d="M140.37,31.24h-2.75V29.48h0A3.91,3.91,0,0,1,136,31a4.21,4.21,0,0,1-2.07.58,4.67,4.67,0,0,1-3.62-1.24,5.46,5.46,0,0,1-1.12-3.74v-8H132v7.78a3.41,3.41,0,0,0,.64,2.35,2.31,2.31,0,0,0,1.79.69,3.51,3.51,0,0,0,1.47-.27,2.7,2.7,0,0,0,1-.72,3,3,0,0,0,.53-1.1,5.92,5.92,0,0,0,.16-1.37V18.56h2.79Z"/><path class="cls-3" d="M155,30.58a5.41,5.41,0,0,1-1.61,4.28,6.79,6.79,0,0,1-4.62,1.41,9.1,9.1,0,0,1-1.93-.2,5.72,5.72,0,0,1-1.76-.66,4.34,4.34,0,0,1-1.34-1.22,3.79,3.79,0,0,1-.64-1.87h2.8a2.23,2.23,0,0,0,.42,1,2.18,2.18,0,0,0,.7.58,3.08,3.08,0,0,0,.89.27,8.52,8.52,0,0,0,1,.06,3.26,3.26,0,0,0,2.48-.84,3.38,3.38,0,0,0,.78-2.4V29h-.05a4.32,4.32,0,0,1-3.8,2.23,5.87,5.87,0,0,1-2.59-.52A5,5,0,0,1,144,29.27a5.88,5.88,0,0,1-1-2.12,10.13,10.13,0,0,1-.32-2.58,7.54,7.54,0,0,1,.39-2.43,6.32,6.32,0,0,1,1.13-2A5.44,5.44,0,0,1,146,18.73a5.5,5.5,0,0,1,2.41-.51,5,5,0,0,1,2.21.5,3.42,3.42,0,0,1,1.54,1.58h.05V18.56H155ZM148.83,29a2.94,2.94,0,0,0,2.64-1.39,4.39,4.39,0,0,0,.59-1.42,7.29,7.29,0,0,0,.18-1.61,6.31,6.31,0,0,0-.19-1.57,4.37,4.37,0,0,0-.6-1.35,3,3,0,0,0-1.06-.93,3.27,3.27,0,0,0-1.56-.34,3,3,0,0,0-1.57.39,3.14,3.14,0,0,0-1,1,4.26,4.26,0,0,0-.56,1.42,7.14,7.14,0,0,0-.17,1.58,6,6,0,0,0,.19,1.53,4.21,4.21,0,0,0,.61,1.34,3.16,3.16,0,0,0,1,1A2.92,2.92,0,0,0,148.83,29Z"/><path class="cls-3" d="M169,31.24h-2.75V29.48h-.05A3.82,3.82,0,0,1,164.67,31a4.22,4.22,0,0,1-2.08.58A4.66,4.66,0,0,1,159,30.35a5.41,5.41,0,0,1-1.12-3.74v-8h2.8v7.78a3.46,3.46,0,0,0,.63,2.35,2.34,2.34,0,0,0,1.8.69,3.57,3.57,0,0,0,1.47-.27,2.58,2.58,0,0,0,.95-.72,2.82,2.82,0,0,0,.53-1.1,5.42,5.42,0,0,0,.16-1.37V18.56H169Z"/><path class="cls-3" d="M174.12,25.63a4.83,4.83,0,0,0,.21,1.42,3.44,3.44,0,0,0,.63,1.2,3,3,0,0,0,1,.82,3.93,3.93,0,0,0,3.5-.22,3.07,3.07,0,0,0,1.11-1.58h2.65a5.12,5.12,0,0,1-.76,1.84,5.27,5.27,0,0,1-1.3,1.36,5.38,5.38,0,0,1-1.7.83,7.19,7.19,0,0,1-4.63-.2,5.49,5.49,0,0,1-1.95-1.38,5.84,5.84,0,0,1-1.2-2.11,8.55,8.55,0,0,1-.4-2.7,7.56,7.56,0,0,1,.43-2.56A6.41,6.41,0,0,1,173,20.22a6.06,6.06,0,0,1,7.17-1.38,5.89,5.89,0,0,1,2,1.66,6.78,6.78,0,0,1,1.14,2.37,7.09,7.09,0,0,1,.18,2.76Zm6.53-1.84a5,5,0,0,0-.28-1.28,3.58,3.58,0,0,0-.64-1.07,3.26,3.26,0,0,0-1-.73,2.9,2.9,0,0,0-1.29-.28,3.4,3.4,0,0,0-1.34.25,3.11,3.11,0,0,0-1,.71,3.68,3.68,0,0,0-.68,1.07,3.64,3.64,0,0,0-.29,1.33Z"/></svg>