<svg id="Camada_1" data-name="Camada 1" xmlns="http://www.w3.org/2000/svg" viewBox="0 0 200 50"><defs><style>.cls-1{fill:#00ab67;}.cls-2{fill:#ccc;}.cls-3{fill:#fff;}</style></defs><title>botao-soh</title><rect class="cls-1" x="-0.5" y="-0.5" width="201" height="51"/><path class="cls-2" d="M200,0V50H0V0H200m1-1H-1V51H201V-1Z"/><path class="cls-3" d="M43.71,16.34h2.55l5.28,13.71H49l-1.29-3.63H42.21l-1.29,3.63H38.44Zm-.85,8.26h4.19L45,18.7h-.06Z"/><path class="cls-3" d="M52.6,16.34h2.19V30.05H52.6Z"/><path class="cls-3" d="M65.88,30.05H63.73V28.67h0a3,3,0,0,1-1.21,1.2,3.25,3.25,0,0,1-1.62.45,3.63,3.63,0,0,1-2.83-1,4.27,4.27,0,0,1-.87-2.93v-6.3h2.19v6.09a2.69,2.69,0,0,0,.49,1.84,1.83,1.83,0,0,0,1.41.54,2.78,2.78,0,0,0,1.15-.21,2,2,0,0,0,.75-.57,2.11,2.11,0,0,0,.41-.85,4.57,4.57,0,0,0,.13-1.08V20.12h2.18Z"/><path class="cls-3" d="M77.37,29.53a4.21,4.21,0,0,1-1.26,3.35A5.31,5.31,0,0,1,72.49,34,7.11,7.11,0,0,1,71,33.83a4.57,4.57,0,0,1-1.38-.51,3.47,3.47,0,0,1-1-1,3,3,0,0,1-.5-1.45h2.19a1.87,1.87,0,0,0,.33.74,1.61,1.61,0,0,0,.55.46,2.49,2.49,0,0,0,.7.21,6.8,6.8,0,0,0,.8,0,2.53,2.53,0,0,0,1.94-.65,2.63,2.63,0,0,0,.62-1.88V28.3h0a3.4,3.4,0,0,1-1.26,1.29,3.33,3.33,0,0,1-1.72.46,4.57,4.57,0,0,1-2-.41,3.85,3.85,0,0,1-1.38-1.14,4.5,4.5,0,0,1-.8-1.66,7.63,7.63,0,0,1-.25-2,5.69,5.69,0,0,1,.31-1.9,4.83,4.83,0,0,1,.88-1.59,4.21,4.21,0,0,1,1.41-1.08,4.3,4.3,0,0,1,1.89-.41,3.7,3.7,0,0,1,1.73.4,2.65,2.65,0,0,1,1.21,1.24h0V20.12h2.19Zm-4.86-1.21a2.4,2.4,0,0,0,1.24-.3,2.36,2.36,0,0,0,.82-.78A3.39,3.39,0,0,0,75,26.12a5.28,5.28,0,0,0,.15-1.25A4.51,4.51,0,0,0,75,23.64a3.09,3.09,0,0,0-.47-1.06,2.22,2.22,0,0,0-.82-.73,2.58,2.58,0,0,0-1.22-.27,2.25,2.25,0,0,0-1.23.31,2.48,2.48,0,0,0-.81.8A3.44,3.44,0,0,0,70,23.8,5.87,5.87,0,0,0,69.9,25a4.81,4.81,0,0,0,.15,1.2,3.19,3.19,0,0,0,.47,1,2.43,2.43,0,0,0,.81.75A2.2,2.2,0,0,0,72.51,28.32Z"/><path class="cls-3" d="M88.29,30.05H86.14V28.67h0a3,3,0,0,1-1.2,1.2,3.25,3.25,0,0,1-1.62.45,3.63,3.63,0,0,1-2.83-1,4.27,4.27,0,0,1-.88-2.93v-6.3h2.19v6.09a2.68,2.68,0,0,0,.5,1.84,1.83,1.83,0,0,0,1.41.54,2.78,2.78,0,0,0,1.15-.21,2.14,2.14,0,0,0,.75-.57A2.11,2.11,0,0,0,86,27a4.58,4.58,0,0,0,.12-1.08V20.12h2.19Z"/><path class="cls-3" d="M92.31,25.65a3.79,3.79,0,0,0,.16,1.12,2.72,2.72,0,0,0,.49.94,2.31,2.31,0,0,0,.83.64,2.69,2.69,0,0,0,1.19.24,2.65,2.65,0,0,0,1.54-.41,2.53,2.53,0,0,0,.88-1.24h2.07a4,4,0,0,1-.6,1.44,4.3,4.3,0,0,1-1,1.07,4.76,4.76,0,0,1-1.34.65,5.26,5.26,0,0,1-1.54.22,5.18,5.18,0,0,1-2.08-.39,4.15,4.15,0,0,1-1.52-1.07,4.64,4.64,0,0,1-.95-1.65,6.77,6.77,0,0,1-.31-2.11,6.05,6.05,0,0,1,.33-2,5.4,5.4,0,0,1,1-1.67,4.6,4.6,0,0,1,1.51-1.14,4.8,4.8,0,0,1,4.1.06,4.67,4.67,0,0,1,1.55,1.3,5.3,5.3,0,0,1,.89,1.85,5.79,5.79,0,0,1,.14,2.16Zm5.1-1.44a3.45,3.45,0,0,0-.22-1,2.49,2.49,0,0,0-.5-.83,2.44,2.44,0,0,0-.76-.58,2.37,2.37,0,0,0-1-.22,2.73,2.73,0,0,0-1,.2,2.41,2.41,0,0,0-.8.56,2.63,2.63,0,0,0-.54.84,2.71,2.71,0,0,0-.22,1Z"/><path class="cls-3" d="M112.76,16a6.41,6.41,0,0,1,2.75.58,6.16,6.16,0,0,1,2.07,1.55,7,7,0,0,1,1.29,2.29,8.78,8.78,0,0,1,0,5.55,6.9,6.9,0,0,1-1.29,2.28,6,6,0,0,1-2.07,1.55,6.94,6.94,0,0,1-5.51,0,6,6,0,0,1-2.06-1.55,6.75,6.75,0,0,1-1.3-2.28,8.78,8.78,0,0,1,0-5.55,6.89,6.89,0,0,1,1.3-2.29A6.12,6.12,0,0,1,110,16.59,6.46,6.46,0,0,1,112.76,16Zm0,2a3.88,3.88,0,0,0-1.89.44,3.7,3.7,0,0,0-1.3,1.18,5.54,5.54,0,0,0-.74,1.68,7.84,7.84,0,0,0,0,3.85,5.54,5.54,0,0,0,.74,1.68,3.7,3.7,0,0,0,1.3,1.18A3.88,3.88,0,0,0,116,26.8a5.53,5.53,0,0,0,.73-1.68,7.84,7.84,0,0,0,0-3.85,5.53,5.53,0,0,0-.73-1.68A3.68,3.68,0,0,0,112.76,18Z"/><path class="cls-3" d="M121.21,20.12h2.07v1.46l0,0a3.76,3.76,0,0,1,1.3-1.3,3.54,3.54,0,0,1,1.79-.47,3.7,3.7,0,0,1,2.57.85,3.22,3.22,0,0,1,.94,2.53v6.82h-2.18V23.81a2.77,2.77,0,0,0-.5-1.7,1.83,1.83,0,0,0-1.44-.53,2.41,2.41,0,0,0-1,.2,2.11,2.11,0,0,0-.75.56,2.49,2.49,0,0,0-.48.84,2.82,2.82,0,0,0-.17,1v5.86h-2.19Z"/><path class="cls-3" d="M132.29,16.34h2.19V30.05h-2.19Z"/><path class="cls-3" d="M136.91,16.34h2.19v2.07h-2.19Zm0,3.78h2.19v9.93h-2.19Z"/><path class="cls-3" d="M141.48,20.12h2.08v1.46l0,0a3.68,3.68,0,0,1,1.3-1.3,3.54,3.54,0,0,1,1.79-.47,3.72,3.72,0,0,1,2.57.85,3.22,3.22,0,0,1,.94,2.53v6.82H148V23.81a2.65,2.65,0,0,0-.5-1.7,1.8,1.8,0,0,0-1.44-.53,2.4,2.4,0,0,0-1,.2,2.11,2.11,0,0,0-.75.56,2.49,2.49,0,0,0-.48.84,2.83,2.83,0,0,0-.18,1v5.86h-2.19Z"/><path class="cls-3" d="M154.22,25.65a3.79,3.79,0,0,0,.16,1.12,2.72,2.72,0,0,0,.49.94,2.36,2.36,0,0,0,.82.64,2.75,2.75,0,0,0,1.19.24,2.68,2.68,0,0,0,1.55-.41,2.45,2.45,0,0,0,.87-1.24h2.08a4.22,4.22,0,0,1-.6,1.44,4.16,4.16,0,0,1-1,1.07,4.57,4.57,0,0,1-1.33.65,5.28,5.28,0,0,1-1.55.22,5.16,5.16,0,0,1-2.07-.39,4.27,4.27,0,0,1-1.53-1.07,4.62,4.62,0,0,1-.94-1.65A6.77,6.77,0,0,1,152,25.1a6.05,6.05,0,0,1,.33-2,5.4,5.4,0,0,1,1-1.67,4.6,4.6,0,0,1,1.51-1.14,4.45,4.45,0,0,1,2-.43,4.52,4.52,0,0,1,2.1.49,4.67,4.67,0,0,1,1.55,1.3,5.3,5.3,0,0,1,.89,1.85,5.79,5.79,0,0,1,.14,2.16Zm5.1-1.44a3.45,3.45,0,0,0-.22-1,2.67,2.67,0,0,0-.5-.83,2.37,2.37,0,0,0-.77-.58,2.33,2.33,0,0,0-1-.22,2.69,2.69,0,0,0-1.05.2,2.55,2.55,0,0,0-.81.56,2.79,2.79,0,0,0-.53.84,2.71,2.71,0,0,0-.22,1Z"/></svg>