<svg id="Camada_1" data-name="Camada 1" xmlns="http://www.w3.org/2000/svg" viewBox="0 0 200 50"><defs><style>.cls-1{fill:#009ade;}.cls-2{fill:#ccc;}.cls-3{fill:#fff;}</style></defs><title>botao-soh</title><rect class="cls-1" x="-0.5" y="-0.5" width="201" height="51"/><path class="cls-2" d="M200,0V50H0V0H200m1-1H-1V51H201V-1Z"/><path class="cls-3" d="M172,17l-3.84,3.84-.35.35.35.36,4.34,4.34L168.33,30h-8l3.84-3.84.35-.35-.35-.35-4.34-4.35L164,17h8m1.21-.5Z"/><path class="cls-3" d="M32,16.34h2.56l5.28,13.71H37.3L36,26.42H30.54l-1.29,3.63H26.77Zm-.84,8.26h4.19l-2.06-5.9h-.06Z"/><path class="cls-3" d="M40.92,16.34h2.19V30.05H40.92Z"/><path class="cls-3" d="M54.21,30.05H52.06V28.67h0a3,3,0,0,1-1.2,1.2,3.25,3.25,0,0,1-1.62.45,3.63,3.63,0,0,1-2.83-1,4.27,4.27,0,0,1-.87-2.93v-6.3h2.18v6.09a2.68,2.68,0,0,0,.5,1.84,1.83,1.83,0,0,0,1.41.54,2.78,2.78,0,0,0,1.15-.21,2.14,2.14,0,0,0,.75-.57A2.11,2.11,0,0,0,51.9,27,4.58,4.58,0,0,0,52,25.88V20.12h2.19Z"/><path class="cls-3" d="M65.7,29.53a4.21,4.21,0,0,1-1.26,3.35A5.31,5.31,0,0,1,60.82,34a7.11,7.11,0,0,1-1.51-.16,4.47,4.47,0,0,1-1.38-.51,3.36,3.36,0,0,1-1-1,2.89,2.89,0,0,1-.5-1.45h2.19a1.74,1.74,0,0,0,.33.74,1.53,1.53,0,0,0,.55.46,2.49,2.49,0,0,0,.7.21,6.8,6.8,0,0,0,.8,0,2.53,2.53,0,0,0,1.94-.65,2.63,2.63,0,0,0,.62-1.88V28.3h0a3.4,3.4,0,0,1-1.26,1.29,3.33,3.33,0,0,1-1.72.46,4.57,4.57,0,0,1-2-.41,4,4,0,0,1-1.39-1.14,4.64,4.64,0,0,1-.79-1.66,7.63,7.63,0,0,1-.25-2,6,6,0,0,1,.3-1.9,4.85,4.85,0,0,1,.89-1.59,4.21,4.21,0,0,1,1.41-1.08,4.3,4.3,0,0,1,1.89-.41,3.73,3.73,0,0,1,1.73.4,2.65,2.65,0,0,1,1.21,1.24h0V20.12H65.7Zm-4.86-1.21a2.42,2.42,0,0,0,1.24-.3,2.36,2.36,0,0,0,.82-.78,3.39,3.39,0,0,0,.46-1.12,5.28,5.28,0,0,0,.15-1.25,4.51,4.51,0,0,0-.16-1.23,3.29,3.29,0,0,0-.47-1.06,2.22,2.22,0,0,0-.82-.73,2.58,2.58,0,0,0-1.22-.27,2.25,2.25,0,0,0-1.23.31,2.48,2.48,0,0,0-.81.8,3.44,3.44,0,0,0-.44,1.11A5.87,5.87,0,0,0,58.23,25a4.81,4.81,0,0,0,.15,1.2,3.19,3.19,0,0,0,.47,1,2.43,2.43,0,0,0,.81.75A2.2,2.2,0,0,0,60.84,28.32Z"/><path class="cls-3" d="M76.62,30.05H74.47V28.67h0a3,3,0,0,1-1.2,1.2,3.25,3.25,0,0,1-1.62.45,3.62,3.62,0,0,1-2.83-1,4.27,4.27,0,0,1-.88-2.93v-6.3h2.19v6.09a2.68,2.68,0,0,0,.5,1.84,1.81,1.81,0,0,0,1.4.54,2.83,2.83,0,0,0,1.16-.21,2.14,2.14,0,0,0,.75-.57,2.25,2.25,0,0,0,.41-.85,4.58,4.58,0,0,0,.12-1.08V20.12h2.19Z"/><path class="cls-3" d="M80.64,25.65a3.79,3.79,0,0,0,.16,1.12,2.72,2.72,0,0,0,.49.94,2.36,2.36,0,0,0,.82.64,2.75,2.75,0,0,0,1.19.24,2.68,2.68,0,0,0,1.55-.41,2.45,2.45,0,0,0,.87-1.24H87.8a4.22,4.22,0,0,1-.6,1.44,4.16,4.16,0,0,1-1,1.07,4.57,4.57,0,0,1-1.33.65,5.28,5.28,0,0,1-1.55.22,5.16,5.16,0,0,1-2.07-.39,4.27,4.27,0,0,1-1.53-1.07,4.62,4.62,0,0,1-.94-1.65,6.77,6.77,0,0,1-.31-2.11,6.05,6.05,0,0,1,.33-2,5.4,5.4,0,0,1,1-1.67,4.6,4.6,0,0,1,1.51-1.14,4.45,4.45,0,0,1,2-.43,4.52,4.52,0,0,1,2.1.49,4.67,4.67,0,0,1,1.55,1.3,5.3,5.3,0,0,1,.89,1.85,5.79,5.79,0,0,1,.14,2.16Zm5.1-1.44a3.45,3.45,0,0,0-.22-1,2.67,2.67,0,0,0-.5-.83,2.37,2.37,0,0,0-.77-.58,2.33,2.33,0,0,0-1-.22,2.69,2.69,0,0,0-1,.2,2.55,2.55,0,0,0-.81.56,2.79,2.79,0,0,0-.53.84,2.71,2.71,0,0,0-.22,1Z"/><path class="cls-3" d="M101.09,16a6.41,6.41,0,0,1,2.75.58,6.26,6.26,0,0,1,2.07,1.55,7,7,0,0,1,1.29,2.29,8.78,8.78,0,0,1,0,5.55,6.9,6.9,0,0,1-1.29,2.28,6.13,6.13,0,0,1-2.07,1.55,6.94,6.94,0,0,1-5.51,0,6,6,0,0,1-2.06-1.55A6.75,6.75,0,0,1,95,26a8.78,8.78,0,0,1,0-5.55,6.89,6.89,0,0,1,1.3-2.29,6.12,6.12,0,0,1,2.06-1.55A6.43,6.43,0,0,1,101.09,16Zm0,2a4,4,0,0,0-1.9.44,3.75,3.75,0,0,0-1.29,1.18,5.54,5.54,0,0,0-.74,1.68,7.84,7.84,0,0,0,0,3.85,5.54,5.54,0,0,0,.74,1.68A3.75,3.75,0,0,0,99.19,28a4,4,0,0,0,1.9.44A3.88,3.88,0,0,0,103,28a3.75,3.75,0,0,0,1.29-1.18,5.31,5.31,0,0,0,.74-1.68,7.84,7.84,0,0,0,0-3.85,5.31,5.31,0,0,0-.74-1.68A3.75,3.75,0,0,0,103,18.41,3.88,3.88,0,0,0,101.09,18Z"/><path class="cls-3" d="M109.54,20.12h2.07v1.46l0,0a3.76,3.76,0,0,1,1.3-1.3,3.54,3.54,0,0,1,1.79-.47,3.7,3.7,0,0,1,2.57.85,3.22,3.22,0,0,1,.94,2.53v6.82h-2.19V23.81a2.65,2.65,0,0,0-.5-1.7,1.8,1.8,0,0,0-1.44-.53,2.4,2.4,0,0,0-1,.2,2.11,2.11,0,0,0-.75.56,2.49,2.49,0,0,0-.48.84,2.83,2.83,0,0,0-.18,1v5.86h-2.18Z"/><path class="cls-3" d="M120.62,16.34h2.18V30.05h-2.18Z"/><path class="cls-3" d="M125.24,16.34h2.19v2.07h-2.19Zm0,3.78h2.19v9.93h-2.19Z"/><path class="cls-3" d="M129.81,20.12h2.08v1.46l0,0a3.68,3.68,0,0,1,1.3-1.3,3.52,3.52,0,0,1,1.79-.47,3.72,3.72,0,0,1,2.57.85,3.22,3.22,0,0,1,.94,2.53v6.82h-2.19V23.81a2.65,2.65,0,0,0-.5-1.7,1.8,1.8,0,0,0-1.44-.53,2.48,2.48,0,0,0-1,.2,2.17,2.17,0,0,0-.74.56,2.49,2.49,0,0,0-.48.84,2.83,2.83,0,0,0-.18,1v5.86h-2.19Z"/><path class="cls-3" d="M142.54,25.65a3.8,3.8,0,0,0,.17,1.12,2.72,2.72,0,0,0,.49.94,2.28,2.28,0,0,0,.82.64,2.75,2.75,0,0,0,1.19.24,2.68,2.68,0,0,0,1.55-.41,2.45,2.45,0,0,0,.87-1.24h2.08a4.22,4.22,0,0,1-.6,1.44,4.16,4.16,0,0,1-1,1.07,4.57,4.57,0,0,1-1.33.65,5.28,5.28,0,0,1-1.55.22,5.16,5.16,0,0,1-2.07-.39,4.27,4.27,0,0,1-1.53-1.07,4.62,4.62,0,0,1-.94-1.65,6.77,6.77,0,0,1-.31-2.11,6.05,6.05,0,0,1,.33-2,5.21,5.21,0,0,1,1-1.67,4.6,4.6,0,0,1,1.51-1.14,4.45,4.45,0,0,1,2-.43,4.52,4.52,0,0,1,2.1.49,4.63,4.63,0,0,1,1.54,1.3,5.32,5.32,0,0,1,.9,1.85,5.79,5.79,0,0,1,.14,2.16Zm5.11-1.44a3.45,3.45,0,0,0-.22-1,2.67,2.67,0,0,0-.5-.83,2.48,2.48,0,0,0-.77-.58,2.33,2.33,0,0,0-1-.22,2.69,2.69,0,0,0-1,.2,2.45,2.45,0,0,0-.81.56,3,3,0,0,0-.54.84,3.15,3.15,0,0,0-.22,1Z"/></svg>