<?xml version="1.0" encoding="utf-8"?>
<!-- Generator: Adobe Illustrator 22.0.1, SVG Export Plug-In . SVG Version: 6.00 Build 0)  -->
<svg version="1.1" id="Camada_1" xmlns="http://www.w3.org/2000/svg" xmlns:xlink="http://www.w3.org/1999/xlink" x="0px" y="0px"
	 viewBox="0 0 18 18" style="enable-background:new 0 0 18 18;" xml:space="preserve">
<style type="text/css">
	.st0{fill:#FFFFFF;}
</style>
<path class="st0" d="M15.3,2.2l-2.7,2.6c-0.2-0.1-0.4-0.2-0.6-0.4C11.1,4,10.2,3.7,9.3,3.7c-2.6,0-4.7,1.6-5.3,4.1
	c-0.8,3,1.4,6.1,4.5,6.5c1.5,0.2,3-0.1,4.2-1c0.8-0.6,1.4-1.6,1.5-2.4H9.2V7.4c0.1,0,0.2,0,0.3,0c2.7,0,5.3,0,8,0
	c0.3,0,0.3,0,0.4,0.3c0.4,2.7-0.2,5.2-1.9,7.3c-1.4,1.6-3.2,2.6-5.3,2.9c-2.5,0.3-4.9-0.2-6.9-1.7c-2.1-1.5-3.3-3.6-3.6-6.1
	c-0.5-3.9,1.7-7.7,5.4-9.2C8.9-0.6,12.2-0.1,15.3,2.2C15.2,2.2,15.2,2.2,15.3,2.2z"/>
</svg>
