<?xml version="1.0" encoding="utf-8"?>
<!-- Generator: Adobe Illustrator 22.0.1, SVG Export Plug-In . SVG Version: 6.00 Build 0)  -->
<svg version="1.1" id="Camada_1" xmlns="http://www.w3.org/2000/svg" xmlns:xlink="http://www.w3.org/1999/xlink" x="0px" y="0px"
	 viewBox="0 0 500 500" style="enable-background:new 0 0 500 500;" xml:space="preserve">
<style type="text/css">
	.st0{fill:#777777;}
	.st1{enable-background:new    ;}
</style>
<title>icone-bt-credpago</title>
<g>
	<path class="st0" d="M250,5c135.4,0,245.1,109.8,245.1,245.2c0,32.7-6.6,65.1-19.3,95.3c-24.9,58.8-71.6,105.5-130.4,130.4
		C315.2,488.5,282.8,495,250,495C114.7,495,5,385.2,5,249.9c0-32.7,6.6-65.1,19.3-95.3C62.6,63.8,151.5,4.9,250,5 M250,0
		C111.9,0,0,111.9,0,250s111.9,250,250,250s250-111.9,250-250S388.1,0,250,0z"/>
</g>
<g class="st1">
	<path d="M134.1,225c-5.8,0-10.4,1.9-13.7,5.6c-3.3,3.7-5,8.8-5,15.3c0,6.6,1.6,11.8,4.7,15.4c3.2,3.7,7.7,5.5,13.5,5.5
		c3.9,0,7.5-0.5,10.7-1.5v2.9c-3.1,1.1-6.9,1.6-11.5,1.6c-6.5,0-11.6-2.1-15.4-6.3c-3.7-4.2-5.6-10.1-5.6-17.6
		c0-4.7,0.9-8.9,2.7-12.5c1.8-3.6,4.4-6.4,7.7-8.3s7.3-2.9,11.7-2.9c4.5,0,8.6,0.8,12.2,2.5l-1.3,2.9
		C141.4,225.8,137.8,225,134.1,225z"/>
	<path d="M167.4,233.9c1.5,0,3,0.1,4.7,0.4l-0.6,3c-1.4-0.4-2.9-0.5-4.5-0.5c-2.9,0-5.4,1.2-7.2,3.7c-1.9,2.5-2.8,5.6-2.8,9.5v19
		h-3.1v-34.5h2.7l0.3,6.2h0.2c1.4-2.5,2.9-4.3,4.5-5.3C163.2,234.5,165.2,233.9,167.4,233.9z"/>
	<path d="M193.1,269.7c-5,0-8.9-1.5-11.7-4.6c-2.8-3.1-4.2-7.4-4.2-13c0-5.5,1.4-9.9,4.1-13.2c2.7-3.3,6.4-5,10.9-5
		c4.1,0,7.3,1.4,9.6,4.3c2.3,2.8,3.5,6.7,3.5,11.6v2.5h-24.9c0,4.7,1.1,8.4,3.3,10.9c2.2,2.5,5.3,3.7,9.3,3.7c2,0,3.7-0.1,5.2-0.4
		c1.5-0.3,3.4-0.9,5.7-1.8v2.9c-1.9,0.8-3.7,1.4-5.4,1.7S195.1,269.7,193.1,269.7z M192.2,236.7c-3.3,0-6,1.1-8,3.3
		c-2,2.2-3.2,5.3-3.5,9.5H202c0-4-0.9-7.1-2.6-9.4C197.6,237.9,195.2,236.7,192.2,236.7z"/>
	<path d="M227.5,233.9c2.5,0,4.7,0.5,6.5,1.4c1.8,0.9,3.4,2.5,4.9,4.7h0.2c-0.1-2.7-0.2-5.3-0.2-7.8v-12.4h3.1v49.4h-2.1l-0.8-5.3
		h-0.3c-2.6,3.9-6.4,5.9-11.3,5.9c-4.8,0-8.4-1.5-10.9-4.4c-2.5-3-3.8-7.3-3.8-12.9c0-6,1.2-10.5,3.7-13.7
		C219.1,235.5,222.7,233.9,227.5,233.9z M227.5,236.8c-3.8,0-6.6,1.3-8.5,4c-1.9,2.6-2.8,6.5-2.8,11.5c0,9.8,3.8,14.7,11.4,14.7
		c3.9,0,6.7-1.1,8.6-3.4c1.8-2.3,2.7-6,2.7-11.2v-0.5c0-5.3-0.9-9.2-2.7-11.5C234.4,238,231.5,236.8,227.5,236.8z"/>
	<path d="M282.2,236c0,4.5-1.5,7.9-4.6,10.3c-3,2.4-7.4,3.6-12.9,3.6h-7.2v19.2h-3.2v-46.4h11.4C276.7,222.7,282.2,227.1,282.2,236z
		 M257.6,247.1h6.4c5.2,0,9-0.9,11.3-2.6c2.3-1.7,3.5-4.5,3.5-8.4c0-3.6-1.1-6.2-3.3-8c-2.2-1.7-5.6-2.6-10.2-2.6h-7.7V247.1z"/>
	<path d="M312.5,269.1l-0.8-5.5h-0.3c-1.7,2.2-3.5,3.8-5.3,4.7c-1.8,0.9-4,1.4-6.5,1.4c-3.4,0-6-0.9-7.9-2.6
		c-1.9-1.7-2.8-4.1-2.8-7.2c0-3.4,1.4-6,4.2-7.8c2.8-1.9,6.9-2.8,12.2-3l6.6-0.2v-2.3c0-3.3-0.7-5.8-2-7.4c-1.3-1.7-3.5-2.5-6.4-2.5
		c-3.2,0-6.5,0.9-9.9,2.7l-1.2-2.7c3.8-1.8,7.5-2.7,11.2-2.7c3.8,0,6.6,1,8.5,3c1.9,2,2.8,5,2.8,9.2v22.9H312.5z M299.8,266.9
		c3.7,0,6.6-1.1,8.7-3.2c2.1-2.1,3.2-5,3.2-8.8v-3.4l-6,0.3c-4.8,0.2-8.3,1-10.4,2.3c-2.1,1.3-3.1,3.3-3.1,6c0,2.2,0.7,3.8,2,5
		S297.4,266.9,299.8,266.9z"/>
	<path d="M352.9,234.6v2.2l-7.1,0.4c1.9,2.4,2.9,5,2.9,7.8c0,3.3-1.1,6-3.3,8.1c-2.2,2.1-5.2,3.1-8.9,3.1c-1.6,0-2.7-0.1-3.3-0.2
		c-1.2,0.7-2.2,1.4-2.9,2.3c-0.7,0.9-1,1.8-1,2.8c0,1.1,0.4,1.9,1.3,2.4s2.2,0.8,4.2,0.8h6c3.7,0,6.6,0.8,8.6,2.3c2,1.5,3,3.8,3,6.7
		c0,3.6-1.5,6.4-4.4,8.4c-3,2-7.2,3-12.6,3c-4.3,0-7.7-0.8-10.1-2.5c-2.4-1.7-3.6-4-3.6-7c0-2.4,0.7-4.3,2.2-5.9
		c1.5-1.6,3.5-2.6,6-3.2c-1-0.4-1.9-1.1-2.5-1.9c-0.6-0.8-0.9-1.8-0.9-2.8c0-2.3,1.5-4.3,4.4-6.1c-2-0.8-3.6-2.1-4.7-3.9
		c-1.1-1.8-1.7-3.8-1.7-6.1c0-3.4,1.1-6.2,3.3-8.3c2.2-2.1,5.1-3.1,8.9-3.1c2.3,0,4,0.2,5.3,0.7H352.9z M325,274.9
		c0,4.7,3.5,7.1,10.6,7.1c9.1,0,13.6-2.9,13.6-8.7c0-2.1-0.7-3.6-2.1-4.5c-1.4-0.9-3.7-1.4-6.9-1.4h-5.6
		C328.1,267.5,325,270,325,274.9z M327.6,245.4c0,2.7,0.8,4.7,2.4,6.2c1.6,1.5,3.8,2.2,6.5,2.2c2.9,0,5.1-0.7,6.6-2.2
		s2.3-3.6,2.3-6.3c0-2.9-0.8-5.1-2.4-6.6s-3.8-2.2-6.6-2.2c-2.8,0-4.9,0.8-6.5,2.4C328.4,240.4,327.6,242.6,327.6,245.4z"/>
	<path d="M388.5,251.8c0,5.6-1.4,10-4.1,13.2c-2.7,3.2-6.5,4.7-11.3,4.7c-3,0-5.7-0.7-8-2.2c-2.3-1.5-4.1-3.6-5.3-6.3
		c-1.2-2.7-1.8-5.9-1.8-9.5c0-5.6,1.4-10,4.1-13.2c2.7-3.1,6.5-4.7,11.2-4.7c4.7,0,8.5,1.6,11.2,4.8
		C387.2,241.9,388.5,246.3,388.5,251.8z M361.3,251.8c0,4.7,1,8.4,3.1,11.1c2.1,2.7,5,4,8.8,4s6.8-1.3,8.8-4
		c2.1-2.7,3.1-6.4,3.1-11.1c0-4.8-1.1-8.5-3.2-11.1c-2.1-2.6-5.1-3.9-8.9-3.9s-6.7,1.3-8.8,3.9C362.3,243.3,361.3,247,361.3,251.8z"
		/>
</g>
</svg>
