<?xml version="1.0" encoding="utf-8"?>
<!-- Generator: Adobe Illustrator 22.0.1, SVG Export Plug-In . SVG Version: 6.00 Build 0)  -->
<svg version="1.1" id="Camada_1" xmlns="http://www.w3.org/2000/svg" xmlns:xlink="http://www.w3.org/1999/xlink" x="0px" y="0px"
	 viewBox="0 0 500 500" style="enable-background:new 0 0 500 500;" xml:space="preserve">
<style type="text/css">
	.st0{fill:#777777;}
	.st1{fill:#FFFFFF;}
</style>
<title>icone-visitar</title>
<path class="st0" d="M250,5c33.1,0,65.2,6.5,95.4,19.3c29.2,12.3,55.4,30,77.9,52.5c22.5,22.5,40.2,48.7,52.5,77.9
	c12.8,30.2,19.3,62.3,19.3,95.4s-6.5,65.2-19.3,95.4c-12.3,29.2-30,55.4-52.5,77.9c-22.5,22.5-48.7,40.2-77.9,52.5
	C315.2,488.5,283.1,495,250,495s-65.2-6.5-95.4-19.3c-29.2-12.3-55.4-30-77.9-52.5s-40.2-48.7-52.5-77.9C11.5,315.2,5,283.1,5,250
	s6.5-65.2,19.3-95.4c12.3-29.2,30-55.4,52.5-77.9c22.5-22.5,48.7-40.2,77.9-52.5C184.8,11.5,216.9,5,250,5 M250,0
	C111.9,0,0,111.9,0,250s111.9,250,250,250s250-111.9,250-250S388.1,0,250,0L250,0z"/>
<g>
	<g>
		<path class="st0" d="M214.6,216.4v17.1h-17.1v-17.1H214.6 M219.6,211.4h-27.1v27.1h27.1V211.4L219.6,211.4z"/>
		<path class="st0" d="M258.6,216.4v17.1h-17.1v-17.1H258.6 M263.6,211.4h-27.1v27.1h27.1V211.4L263.6,211.4z"/>
		<path class="st0" d="M302.6,216.4v17.1h-17.1v-17.1H302.6 M307.6,211.4h-27.1v27.1h27.1V211.4L307.6,211.4z"/>
		<path class="st0" d="M214.6,261.4v17.1h-17.1v-17.1H214.6 M219.6,256.4h-27.1v27.1h27.1V256.4L219.6,256.4z"/>
		<path class="st0" d="M258.6,261.4v17.1h-17.1v-17.1H258.6 M263.6,256.4h-27.1v27.1h27.1V256.4L263.6,256.4z"/>
		<path class="st0" d="M302.6,261.4v17.1h-17.1v-17.1H302.6 M307.6,256.4h-27.1v27.1h27.1V256.4L307.6,256.4z"/>
	</g>
	<g>
		<path class="st1" d="M165.4,334.6V165.4h169.2v169.2H165.4z M179.2,320.6h141.5V197.2H179.2V320.6z"/>
		<path class="st0" d="M332.1,167.9v164.2H167.9V167.9H332.1 M176.7,323.1h5h136.5h5v-5V199.7v-5h-5H181.7h-5v5v118.4V323.1
			 M337.1,162.9H162.9v174.2h174.2V162.9L337.1,162.9z M181.7,318.1V199.7h136.5v118.4H181.7L181.7,318.1z"/>
	</g>
</g>
</svg>
