<?xml version="1.0" encoding="utf-8"?>
<!-- Generator: Adobe Illustrator 22.0.1, SVG Export Plug-In . SVG Version: 6.00 Build 0)  -->
<svg version="1.1" id="Camada_1" xmlns="http://www.w3.org/2000/svg" xmlns:xlink="http://www.w3.org/1999/xlink" x="0px" y="0px"
	 viewBox="0 0 500 500" style="enable-background:new 0 0 500 500;" xml:space="preserve">
<style type="text/css">
	.st0{fill:#777777;}
	.st1{enable-background:new    ;}
</style>
<title>icone-bt-visitar</title>
<g>
	<path class="st0" d="M250,5c135.4,0,245.1,109.8,245.1,245.2c0,32.7-6.6,65.1-19.3,95.3c-24.9,58.8-71.6,105.5-130.4,130.4
		C315.2,488.5,282.8,495,250,495C114.7,495,5,385.2,5,249.9c0-32.7,6.6-65.1,19.3-95.3C62.6,63.8,151.5,4.9,250,5 M250,0
		C111.9,0,0,111.9,0,250s111.9,250,250,250s250-111.9,250-250S388.1,0,250,0z"/>
</g>
<g class="st1">
	<path d="M202,199.7c0,6.2-1.3,11.4-4,15.4s-6.4,6.7-11.1,7.8l10.6,11h-5.3l-9-10.5l-1,0.1h-1c-6.5,0-11.5-2.1-15.2-6.4
		c-3.7-4.3-5.5-10.1-5.5-17.5c0-7.4,1.9-13.2,5.6-17.4c3.7-4.2,8.8-6.4,15.2-6.4c6.5,0,11.5,2.1,15.2,6.4
		C200.2,186.5,202,192.3,202,199.7z M164.1,199.7c0,6.6,1.5,11.8,4.4,15.4c3,3.6,7.2,5.4,12.8,5.4c5.6,0,9.9-1.8,12.8-5.4
		c3-3.6,4.4-8.7,4.4-15.5c0-6.7-1.5-11.8-4.4-15.4c-3-3.6-7.2-5.3-12.7-5.3c-5.5,0-9.8,1.8-12.8,5.4
		C165.6,188,164.1,193.1,164.1,199.7z"/>
	<path d="M214.6,188.5v22.3c0,3.5,0.7,6,2.2,7.6s3.7,2.4,6.8,2.4c4.1,0,7.1-1,9.1-3.1c1.9-2.1,2.9-5.4,2.9-10.1v-19h3.1V223H236
		l-0.6-4.8h-0.2c-2.2,3.6-6.2,5.4-12,5.4c-7.9,0-11.8-4.2-11.8-12.6v-22.5H214.6z"/>
	<path d="M264.2,223.6c-5,0-8.9-1.5-11.7-4.6c-2.8-3.1-4.2-7.4-4.2-13c0-5.5,1.4-9.9,4.1-13.2c2.7-3.3,6.4-5,10.9-5
		c4.1,0,7.3,1.4,9.6,4.3c2.3,2.8,3.5,6.7,3.5,11.6v2.5h-24.9c0,4.7,1.1,8.4,3.3,10.9c2.2,2.5,5.3,3.7,9.3,3.7c2,0,3.7-0.1,5.2-0.4
		c1.5-0.3,3.4-0.9,5.7-1.8v2.9c-1.9,0.8-3.7,1.4-5.4,1.7S266.2,223.6,264.2,223.6z M263.3,190.6c-3.3,0-6,1.1-8,3.3
		c-2,2.2-3.2,5.3-3.5,9.5h21.3c0-4-0.9-7.1-2.6-9.4C268.7,191.7,266.3,190.6,263.3,190.6z"/>
	<path d="M299.5,187.8c1.5,0,3,0.1,4.7,0.4l-0.6,3c-1.4-0.4-2.9-0.5-4.5-0.5c-2.9,0-5.4,1.2-7.2,3.7c-1.9,2.5-2.8,5.6-2.8,9.5v19
		h-3.1v-34.5h2.7l0.3,6.2h0.2c1.4-2.5,2.9-4.3,4.5-5.3C295.3,188.3,297.2,187.8,299.5,187.8z"/>
	<path d="M339.8,205.7c0,5.6-1.4,10-4.1,13.2c-2.7,3.2-6.5,4.7-11.3,4.7c-3,0-5.7-0.7-8-2.2c-2.3-1.5-4.1-3.6-5.3-6.3
		c-1.2-2.7-1.8-5.9-1.8-9.5c0-5.6,1.4-10,4.1-13.2c2.7-3.1,6.5-4.7,11.2-4.7c4.7,0,8.5,1.6,11.2,4.8
		C338.4,195.7,339.8,200.1,339.8,205.7z M312.5,205.7c0,4.7,1,8.4,3.1,11.1c2.1,2.7,5,4,8.8,4s6.8-1.3,8.8-4
		c2.1-2.7,3.1-6.4,3.1-11.1c0-4.8-1.1-8.5-3.2-11.1c-2.1-2.6-5.1-3.9-8.9-3.9s-6.7,1.3-8.8,3.9C313.6,197.2,312.5,200.9,312.5,205.7
		z"/>
</g>
<g class="st1">
	<path d="M195.4,268.9h3.5l-17.4,46.4h-2.9l-17.3-46.4h3.5l11.7,31.6c1.8,4.8,3,8.3,3.6,10.7c0.4-1.6,1.3-4.1,2.5-7.4L195.4,268.9z"
		/>
	<path d="M204.3,271.2c0-2,0.7-3,2-3c0.7,0,1.2,0.3,1.5,0.8c0.4,0.5,0.6,1.3,0.6,2.3c0,1-0.2,1.7-0.6,2.3c-0.4,0.6-0.9,0.8-1.5,0.8
		C204.9,274.3,204.3,273.2,204.3,271.2z M207.9,315.3h-3.1v-34.5h3.1V315.3z"/>
	<path d="M240.8,306.3c0,3.1-1.2,5.5-3.5,7.1s-5.7,2.5-10,2.5c-4.6,0-8.3-0.7-11-2.1v-3.4c3.5,1.7,7.1,2.6,11,2.6
		c3.4,0,6-0.6,7.8-1.7c1.8-1.1,2.7-2.6,2.7-4.5c0-1.7-0.7-3.2-2.1-4.4c-1.4-1.2-3.7-2.3-6.9-3.5c-3.4-1.2-5.9-2.3-7.3-3.2
		c-1.4-0.9-2.4-1.9-3.2-3c-0.7-1.1-1.1-2.5-1.1-4.1c0-2.6,1.1-4.6,3.3-6.1c2.2-1.5,5.2-2.3,9.1-2.3c3.7,0,7.3,0.7,10.6,2.1l-1.2,2.9
		c-3.4-1.4-6.5-2.1-9.4-2.1c-2.8,0-5,0.5-6.7,1.4c-1.7,0.9-2.5,2.2-2.5,3.9c0,1.8,0.6,3.2,1.9,4.3s3.8,2.3,7.5,3.6
		c3.1,1.1,5.4,2.1,6.8,3s2.5,1.9,3.2,3.1S240.8,304.7,240.8,306.3z"/>
	<path d="M249.2,271.2c0-2,0.7-3,2-3c0.7,0,1.2,0.3,1.5,0.8c0.4,0.5,0.6,1.3,0.6,2.3c0,1-0.2,1.7-0.6,2.3c-0.4,0.6-0.9,0.8-1.5,0.8
		C249.9,274.3,249.2,273.2,249.2,271.2z M252.8,315.3h-3.1v-34.5h3.1V315.3z"/>
	<path d="M273.5,313.1c2,0,3.7-0.2,5.2-0.5v2.5c-1.5,0.5-3.3,0.8-5.3,0.8c-3,0-5.3-0.8-6.7-2.4c-1.4-1.6-2.2-4.2-2.2-7.7v-22.3h-5.1
		v-1.8l5.1-1.4l1.6-7.8h1.6v8.3h10.1v2.7h-10.1v21.8c0,2.6,0.5,4.6,1.4,5.9S271.5,313.1,273.5,313.1z"/>
	<path d="M307.1,315.3l-0.8-5.5h-0.3c-1.7,2.2-3.5,3.8-5.3,4.7c-1.8,0.9-4,1.4-6.5,1.4c-3.4,0-6-0.9-7.9-2.6
		c-1.9-1.7-2.8-4.1-2.8-7.2c0-3.4,1.4-6,4.2-7.8c2.8-1.9,6.9-2.8,12.2-3l6.6-0.2v-2.3c0-3.3-0.7-5.8-2-7.4c-1.3-1.7-3.5-2.5-6.4-2.5
		c-3.2,0-6.5,0.9-9.9,2.7l-1.2-2.7c3.8-1.8,7.5-2.7,11.2-2.7c3.8,0,6.6,1,8.5,3c1.9,2,2.8,5,2.8,9.2v22.9H307.1z M294.4,313
		c3.7,0,6.6-1.1,8.7-3.2c2.1-2.1,3.2-5,3.2-8.8v-3.4l-6,0.3c-4.8,0.2-8.3,1-10.4,2.3c-2.1,1.3-3.1,3.3-3.1,6c0,2.2,0.7,3.8,2,5
		C290.1,312.4,292,313,294.4,313z"/>
	<path d="M334.2,280.1c1.5,0,3,0.1,4.7,0.4l-0.6,3c-1.4-0.4-2.9-0.5-4.5-0.5c-2.9,0-5.4,1.2-7.2,3.7c-1.9,2.5-2.8,5.6-2.8,9.5v19
		h-3.1v-34.5h2.7l0.3,6.2h0.2c1.4-2.5,2.9-4.3,4.5-5.3C329.9,280.6,331.9,280.1,334.2,280.1z"/>
</g>
</svg>
