<?xml version="1.0" encoding="utf-8"?>
<!-- Generator: Adobe Illustrator 22.0.1, SVG Export Plug-In . SVG Version: 6.00 Build 0)  -->
<svg version="1.1" id="Camada_1" xmlns="http://www.w3.org/2000/svg" xmlns:xlink="http://www.w3.org/1999/xlink" x="0px" y="0px"
	 viewBox="0 0 500 500" style="enable-background:new 0 0 500 500;" xml:space="preserve">
<style type="text/css">
	.st0{fill:#777777;}
</style>
<path class="st0" d="M249,4c33.1,0,65.2,6.5,95.4,19.3c29.2,12.3,55.4,30,77.9,52.5c22.5,22.5,40.2,48.7,52.5,77.9
	c12.8,30.2,19.3,62.3,19.3,95.4s-6.5,65.2-19.3,95.4c-12.3,29.2-30,55.4-52.5,77.9c-22.5,22.5-48.7,40.2-77.9,52.5
	C314.2,487.5,282.1,494,249,494s-65.2-6.5-95.4-19.3c-29.2-12.3-55.4-30-77.9-52.5s-40.2-48.7-52.5-77.9C10.5,314.2,4,282.1,4,249
	s6.5-65.2,19.3-95.4c12.3-29.2,30-55.4,52.5-77.9c22.5-22.5,48.7-40.2,77.9-52.5C183.8,10.5,215.9,4,249,4 M249-1
	C110.9-1-1,110.9-1,249s111.9,250,250,250s250-111.9,250-250S387.1-1,249-1L249-1z"/>
<title>icone-alugar_Prancheta 1</title>
<path class="st0" d="M312.8,149.6l31.6,31.6l-5.7,5.7l-3.5,3.5l3.5,3.5l17.5,17.5l-31.6,31.6l-17.6-17.5l-3.5-3.5l-3.5,3.5l-30,30
	l-2.4,2.4l1.3,3.1c6.7,16.3,6.7,34.1,0,50.4c-10.3,24.9-34.3,41-61.2,41c-8.6,0-17.1-1.7-25.2-5c-16.3-6.7-29.1-19.4-35.9-35.7
	c-6.8-16.3-6.8-34.3-0.1-50.6c10.3-24.9,34.3-41,61.2-41c8.6,0,17.1,1.7,25.2,5l3.1,1.3l2.4-2.4L312.8,149.6 M207.8,327.9
	c11.1,0,21.6-4.3,29.5-12.2l0.3-0.3l0,0c15.9-16.3,15.8-42.5-0.3-58.6l-0.1-0.1l0,0c-7.9-7.8-18.3-12.1-29.3-12.1
	c-11.1,0-21.6,4.3-29.5,12.2c-16.2,16.2-16.2,42.7,0,58.9C186.2,323.6,196.7,327.9,207.8,327.9 M312.8,142.6l-77.9,77.9
	c-8.9-3.7-18-5.4-27.1-5.4c-28,0-54.5,16.6-65.8,44.1c-15,36.3,2.3,77.9,38.7,92.9c8.9,3.7,18,5.4,27.1,5.4
	c28,0,54.5-16.6,65.8-44.1c7.2-17.4,7.2-36.8,0-54.2l30-30l21.1,21.1l38.7-38.7l-21.1-21.1l9.2-9.2L312.8,142.6L312.8,142.6z
	 M207.8,322.9c-9.4,0-18.8-3.6-25.9-10.7c-14.3-14.3-14.3-37.5,0-51.8c7.2-7.2,16.5-10.7,25.9-10.7c9.4,0,18.8,3.6,25.9,10.7
	c0,0,0,0,0,0c14.3,14.3,14.3,37.5,0,51.8l0,0C226.5,319.4,217.2,322.9,207.8,322.9L207.8,322.9z"/>
</svg>
