<?xml version="1.0" encoding="utf-8"?>
<!-- Generator: Adobe Illustrator 22.0.1, SVG Export Plug-In . SVG Version: 6.00 Build 0)  -->
<svg version="1.1" id="Camada_1" xmlns="http://www.w3.org/2000/svg" xmlns:xlink="http://www.w3.org/1999/xlink" x="0px" y="0px"
	 viewBox="0 0 500 500" style="enable-background:new 0 0 500 500;" xml:space="preserve">
<style type="text/css">
	.st0{fill:#777777;}
	.st1{enable-background:new    ;}
</style>
<title>icone-bt-alugar</title>
<g>
	<path class="st0" d="M250,5c135.4,0,245.1,109.8,245.1,245.2c0,32.7-6.6,65.1-19.3,95.3c-24.9,58.8-71.6,105.5-130.4,130.4
		C315.2,488.5,282.8,495,250,495C114.7,495,5,385.2,5,249.9c0-32.7,6.6-65.1,19.3-95.3C62.6,63.8,151.5,4.9,250,5 M250,0
		C111.9,0,0,111.9,0,250s111.9,250,250,250s250-111.9,250-250S388.1,0,250,0z"/>
</g>
<g class="st1">
	<path d="M202,199.7c0,6.2-1.3,11.4-4,15.4s-6.4,6.7-11.1,7.8l10.6,11h-5.3l-9-10.5l-1,0.1h-1c-6.5,0-11.5-2.1-15.2-6.4
		c-3.7-4.3-5.5-10.1-5.5-17.5c0-7.4,1.9-13.2,5.6-17.4c3.7-4.2,8.8-6.4,15.2-6.4c6.5,0,11.5,2.1,15.2,6.4
		C200.2,186.5,202,192.3,202,199.7z M164.1,199.7c0,6.6,1.5,11.8,4.4,15.4c3,3.6,7.2,5.4,12.8,5.4c5.6,0,9.9-1.8,12.8-5.4
		c3-3.6,4.4-8.7,4.4-15.5c0-6.7-1.5-11.8-4.4-15.4c-3-3.6-7.2-5.3-12.7-5.3c-5.5,0-9.8,1.8-12.8,5.4
		C165.6,188,164.1,193.1,164.1,199.7z"/>
	<path d="M214.6,188.5v22.3c0,3.5,0.7,6,2.2,7.6s3.7,2.4,6.8,2.4c4.1,0,7.1-1,9.1-3.1c1.9-2.1,2.9-5.4,2.9-10.1v-19h3.1V223H236
		l-0.6-4.8h-0.2c-2.2,3.6-6.2,5.4-12,5.4c-7.9,0-11.8-4.2-11.8-12.6v-22.5H214.6z"/>
	<path d="M264.2,223.6c-5,0-8.9-1.5-11.7-4.6c-2.8-3.1-4.2-7.4-4.2-13c0-5.5,1.4-9.9,4.1-13.2c2.7-3.3,6.4-5,10.9-5
		c4.1,0,7.3,1.4,9.6,4.3c2.3,2.8,3.5,6.7,3.5,11.6v2.5h-24.9c0,4.7,1.1,8.4,3.3,10.9c2.2,2.5,5.3,3.7,9.3,3.7c2,0,3.7-0.1,5.2-0.4
		c1.5-0.3,3.4-0.9,5.7-1.8v2.9c-1.9,0.8-3.7,1.4-5.4,1.7S266.2,223.6,264.2,223.6z M263.3,190.6c-3.3,0-6,1.1-8,3.3
		c-2,2.2-3.2,5.3-3.5,9.5h21.3c0-4-0.9-7.1-2.6-9.4C268.7,191.7,266.3,190.6,263.3,190.6z"/>
	<path d="M299.5,187.8c1.5,0,3,0.1,4.7,0.4l-0.6,3c-1.4-0.4-2.9-0.5-4.5-0.5c-2.9,0-5.4,1.2-7.2,3.7c-1.9,2.5-2.8,5.6-2.8,9.5v19
		h-3.1v-34.5h2.7l0.3,6.2h0.2c1.4-2.5,2.9-4.3,4.5-5.3C295.3,188.3,297.2,187.8,299.5,187.8z"/>
	<path d="M339.8,205.7c0,5.6-1.4,10-4.1,13.2c-2.7,3.2-6.5,4.7-11.3,4.7c-3,0-5.7-0.7-8-2.2c-2.3-1.5-4.1-3.6-5.3-6.3
		c-1.2-2.7-1.8-5.9-1.8-9.5c0-5.6,1.4-10,4.1-13.2c2.7-3.1,6.5-4.7,11.2-4.7c4.7,0,8.5,1.6,11.2,4.8
		C338.4,195.7,339.8,200.1,339.8,205.7z M312.5,205.7c0,4.7,1,8.4,3.1,11.1c2.1,2.7,5,4,8.8,4s6.8-1.3,8.8-4
		c2.1-2.7,3.1-6.4,3.1-11.1c0-4.8-1.1-8.5-3.2-11.1c-2.1-2.6-5.1-3.9-8.9-3.9s-6.7,1.3-8.8,3.9C313.6,197.2,312.5,200.9,312.5,205.7
		z"/>
</g>
<g class="st1">
	<path d="M186.2,298.9h-18.9l-6.5,16.4h-3.6l18.7-46.6h2.1l18.3,46.6h-3.6L186.2,298.9z M168.5,296h16.6l-6.3-16.7
		c-0.5-1.3-1.2-3.1-1.9-5.5c-0.6,2-1.2,3.9-1.9,5.5L168.5,296z"/>
	<path d="M205.2,315.3H202v-49.4h3.1V315.3z"/>
	<path d="M219.4,280.8v22.3c0,3.5,0.7,6,2.2,7.6s3.7,2.4,6.8,2.4c4.1,0,7.1-1,9.1-3.1c1.9-2.1,2.9-5.4,2.9-10.1v-19h3.1v34.5h-2.7
		l-0.6-4.8h-0.2c-2.2,3.6-6.2,5.4-12,5.4c-7.9,0-11.8-4.2-11.8-12.6v-22.5H219.4z"/>
	<path d="M282,280.8v2.2l-7.1,0.4c1.9,2.4,2.9,5,2.9,7.8c0,3.3-1.1,6-3.3,8.1c-2.2,2.1-5.2,3.1-8.9,3.1c-1.6,0-2.7-0.1-3.3-0.2
		c-1.2,0.7-2.2,1.4-2.9,2.3s-1,1.8-1,2.8c0,1.1,0.4,1.9,1.3,2.4s2.2,0.8,4.2,0.8h6c3.7,0,6.6,0.8,8.6,2.3s3,3.8,3,6.7
		c0,3.6-1.5,6.4-4.4,8.4c-3,2-7.2,3-12.6,3c-4.3,0-7.7-0.8-10.1-2.5c-2.4-1.7-3.6-4-3.6-7c0-2.4,0.7-4.3,2.2-5.9
		c1.5-1.6,3.5-2.6,6-3.2c-1-0.4-1.9-1.1-2.5-1.9c-0.6-0.8-0.9-1.8-0.9-2.8c0-2.3,1.5-4.3,4.4-6.1c-2-0.8-3.6-2.1-4.7-3.9
		s-1.7-3.8-1.7-6.1c0-3.4,1.1-6.2,3.3-8.3c2.2-2.1,5.1-3.1,8.9-3.1c2.3,0,4,0.2,5.3,0.7H282z M254,321.1c0,4.7,3.5,7.1,10.6,7.1
		c9.1,0,13.6-2.9,13.6-8.7c0-2.1-0.7-3.6-2.1-4.5c-1.4-0.9-3.7-1.4-6.9-1.4h-5.6C257.2,313.6,254,316.1,254,321.1z M256.7,291.5
		c0,2.7,0.8,4.7,2.4,6.2c1.6,1.5,3.8,2.2,6.5,2.2c2.9,0,5.1-0.7,6.6-2.2s2.3-3.6,2.3-6.3c0-2.9-0.8-5.1-2.4-6.6s-3.8-2.2-6.6-2.2
		c-2.8,0-4.9,0.8-6.5,2.4C257.5,286.5,256.7,288.7,256.7,291.5z"/>
	<path d="M310,315.3l-0.8-5.5h-0.3c-1.7,2.2-3.5,3.8-5.3,4.7c-1.8,0.9-4,1.4-6.5,1.4c-3.4,0-6-0.9-7.9-2.6c-1.9-1.7-2.8-4.1-2.8-7.2
		c0-3.4,1.4-6,4.2-7.8c2.8-1.9,6.9-2.8,12.2-3l6.6-0.2v-2.3c0-3.3-0.7-5.8-2-7.4c-1.3-1.7-3.5-2.5-6.4-2.5c-3.2,0-6.5,0.9-9.9,2.7
		l-1.2-2.7c3.8-1.8,7.5-2.7,11.2-2.7c3.8,0,6.6,1,8.5,3c1.9,2,2.8,5,2.8,9.2v22.9H310z M297.3,313c3.7,0,6.6-1.1,8.7-3.2
		c2.1-2.1,3.2-5,3.2-8.8v-3.4l-6,0.3c-4.8,0.2-8.3,1-10.4,2.3c-2.1,1.3-3.1,3.3-3.1,6c0,2.2,0.7,3.8,2,5
		C293,312.4,294.9,313,297.3,313z"/>
	<path d="M337.1,280.1c1.5,0,3,0.1,4.7,0.4l-0.6,3c-1.4-0.4-2.9-0.5-4.5-0.5c-2.9,0-5.4,1.2-7.2,3.7c-1.9,2.5-2.8,5.6-2.8,9.5v19
		h-3.1v-34.5h2.7l0.3,6.2h0.2c1.4-2.5,2.9-4.3,4.5-5.3C332.8,280.6,334.8,280.1,337.1,280.1z"/>
</g>
</svg>
