<?xml version="1.0" encoding="utf-8"?>
<!-- Generator: Adobe Illustrator 22.0.1, SVG Export Plug-In . SVG Version: 6.00 Build 0)  -->
<svg version="1.1" id="Camada_1" xmlns="http://www.w3.org/2000/svg" xmlns:xlink="http://www.w3.org/1999/xlink" x="0px" y="0px"
	 viewBox="0 0 500 500" style="enable-background:new 0 0 500 500;" xml:space="preserve">
<style type="text/css">
	.st0{fill:#777777;}
	.st1{enable-background:new    ;}
</style>
<title>icone-bt-titulo-capitalizaco</title>
<g>
	<path class="st0" d="M250,5c135.4,0,245.1,109.8,245.1,245.2c0,32.7-6.6,65.1-19.3,95.3c-24.9,58.8-71.6,105.5-130.4,130.4
		C315.2,488.5,282.8,495,250,495C114.7,495,5,385.2,5,249.9c0-32.7,6.6-65.1,19.3-95.3C62.6,63.8,151.5,4.9,250,5 M250,0
		C111.9,0,0,111.9,0,250s111.9,250,250,250s250-111.9,250-250S388.1,0,250,0z"/>
</g>
<g class="st1">
	<path d="M154,223h-3.3v-43.4h-15.1v-3h33.4v3H154V223z"/>
	<path d="M172.8,183.1c1.5-1.7,3.1-3.5,4.6-5.4c1.5-2,2.5-3.4,3.1-4.5h4.5v0.5c-0.8,1.1-2.1,2.6-3.9,4.4c-1.8,1.8-3.8,3.6-6,5.5
		h-2.2V183.1z M178.3,223h-3.1v-34.5h3.1V223z"/>
	<path d="M199,220.8c2,0,3.7-0.2,5.2-0.5v2.5c-1.5,0.5-3.3,0.8-5.3,0.8c-3,0-5.3-0.8-6.7-2.4c-1.4-1.6-2.2-4.2-2.2-7.7v-22.3h-5.1
		v-1.8l5.1-1.4l1.6-7.8h1.6v8.3h10.1v2.7h-10.1V213c0,2.6,0.5,4.6,1.4,5.9C195.6,220.2,197,220.8,199,220.8z"/>
	<path d="M214.4,188.5v22.3c0,3.5,0.7,6,2.2,7.6s3.7,2.4,6.8,2.4c4.1,0,7.1-1,9.1-3.1c1.9-2.1,2.9-5.4,2.9-10.1v-19h3.1V223h-2.7
		l-0.6-4.8H235c-2.2,3.6-6.2,5.4-12,5.4c-7.9,0-11.8-4.2-11.8-12.6v-22.5H214.4z"/>
	<path d="M253.1,223H250v-49.4h3.1V223z"/>
	<path d="M293.2,205.7c0,5.6-1.4,10-4.1,13.2c-2.7,3.2-6.5,4.7-11.3,4.7c-3,0-5.7-0.7-8-2.2c-2.3-1.5-4.1-3.6-5.3-6.3
		c-1.2-2.7-1.8-5.9-1.8-9.5c0-5.6,1.4-10,4.1-13.2c2.7-3.1,6.5-4.7,11.2-4.7c4.7,0,8.5,1.6,11.2,4.8
		C291.9,195.7,293.2,200.1,293.2,205.7z M266,205.7c0,4.7,1,8.4,3.1,11.1c2.1,2.7,5,4,8.8,4s6.8-1.3,8.8-4c2.1-2.7,3.1-6.4,3.1-11.1
		c0-4.8-1.1-8.5-3.2-11.1c-2.1-2.6-5.1-3.9-8.9-3.9s-6.7,1.3-8.8,3.9C267,197.2,266,200.9,266,205.7z"/>
	<path d="M332.3,187.8c2.5,0,4.7,0.5,6.5,1.4c1.8,0.9,3.4,2.5,4.9,4.7h0.2c-0.1-2.7-0.2-5.3-0.2-7.8v-12.4h3.1V223h-2.1l-0.8-5.3
		h-0.3c-2.6,3.9-6.4,5.9-11.3,5.9c-4.8,0-8.4-1.5-10.9-4.4c-2.5-3-3.8-7.3-3.8-12.9c0-6,1.2-10.5,3.7-13.7
		C323.9,189.4,327.5,187.8,332.3,187.8z M332.3,190.6c-3.8,0-6.6,1.3-8.5,4c-1.9,2.6-2.8,6.5-2.8,11.5c0,9.8,3.8,14.7,11.4,14.7
		c3.9,0,6.7-1.1,8.6-3.4c1.8-2.3,2.7-6,2.7-11.2v-0.5c0-5.3-0.9-9.2-2.7-11.5C339.2,191.8,336.3,190.6,332.3,190.6z"/>
	<path d="M372.3,223.6c-5,0-8.9-1.5-11.7-4.6c-2.8-3.1-4.2-7.4-4.2-13c0-5.5,1.4-9.9,4.1-13.2c2.7-3.3,6.4-5,10.9-5
		c4.1,0,7.3,1.4,9.6,4.3c2.3,2.8,3.5,6.7,3.5,11.6v2.5h-24.9c0,4.7,1.1,8.4,3.3,10.9c2.2,2.5,5.3,3.7,9.3,3.7c2,0,3.7-0.1,5.2-0.4
		c1.5-0.3,3.4-0.9,5.7-1.8v2.9c-1.9,0.8-3.7,1.4-5.4,1.7S374.3,223.6,372.3,223.6z M371.4,190.6c-3.3,0-6,1.1-8,3.3
		c-2,2.2-3.2,5.3-3.5,9.5h21.3c0-4-0.9-7.1-2.6-9.4C376.8,191.7,374.4,190.6,371.4,190.6z"/>
</g>
<g class="st1">
	<path d="M85.6,271.1c-5.8,0-10.4,1.9-13.7,5.6c-3.3,3.7-5,8.8-5,15.3c0,6.6,1.6,11.8,4.7,15.4c3.2,3.7,7.7,5.5,13.5,5.5
		c3.9,0,7.5-0.5,10.7-1.5v2.9c-3.1,1.1-6.9,1.6-11.5,1.6c-6.5,0-11.6-2.1-15.4-6.3c-3.7-4.2-5.6-10.1-5.6-17.6
		c0-4.7,0.9-8.9,2.7-12.5c1.8-3.6,4.4-6.4,7.7-8.3s7.3-2.9,11.7-2.9c4.5,0,8.6,0.8,12.2,2.5l-1.3,2.9
		C92.9,272,89.3,271.1,85.6,271.1z"/>
	<path d="M126.3,315.3l-0.8-5.5h-0.3c-1.7,2.2-3.5,3.8-5.3,4.7c-1.8,0.9-4,1.4-6.5,1.4c-3.4,0-6-0.9-7.9-2.6
		c-1.9-1.7-2.8-4.1-2.8-7.2c0-3.4,1.4-6,4.2-7.8c2.8-1.9,6.9-2.8,12.2-3l6.6-0.2v-2.3c0-3.3-0.7-5.8-2-7.4c-1.3-1.7-3.5-2.5-6.4-2.5
		c-3.2,0-6.5,0.9-9.9,2.7l-1.2-2.7c3.8-1.8,7.5-2.7,11.2-2.7c3.8,0,6.6,1,8.5,3c1.9,2,2.8,5,2.8,9.2v22.9H126.3z M113.6,313
		c3.7,0,6.6-1.1,8.7-3.2c2.1-2.1,3.2-5,3.2-8.8v-3.4l-6,0.3c-4.8,0.2-8.3,1-10.4,2.3c-2.1,1.3-3.1,3.3-3.1,6c0,2.2,0.7,3.8,2,5
		C109.3,312.4,111.2,313,113.6,313z"/>
	<path d="M154.5,315.9c-5.3,0-9.2-2-11.6-6h-0.2l0.1,2.7c0.1,1.6,0.1,3.3,0.1,5.1v13.1h-3.1v-50.1h2.7l0.6,4.9h0.2
		c2.4-3.7,6.2-5.6,11.4-5.6c4.7,0,8.2,1.5,10.6,4.6c2.4,3.1,3.7,7.5,3.7,13.3c0,5.7-1.3,10.1-3.9,13.2
		C162.5,314.3,159,315.9,154.5,315.9z M154.5,313.1c3.5,0,6.3-1.3,8.2-3.9c1.9-2.6,2.9-6.3,2.9-11c0-10.1-3.7-15.2-11-15.2
		c-4,0-7,1.1-8.9,3.3c-1.9,2.2-2.8,5.8-2.8,10.8v1c0,5.4,0.9,9.2,2.7,11.6C147.5,312,150.4,313.1,154.5,313.1z"/>
	<path d="M178,271.2c0-2,0.7-3,2-3c0.7,0,1.2,0.3,1.5,0.8c0.4,0.5,0.6,1.3,0.6,2.3c0,1-0.2,1.7-0.6,2.3c-0.4,0.6-0.9,0.8-1.5,0.8
		C178.7,274.3,178,273.2,178,271.2z M181.6,315.3h-3.1v-34.5h3.1V315.3z"/>
	<path d="M202.3,313.1c2,0,3.7-0.2,5.2-0.5v2.5c-1.5,0.5-3.3,0.8-5.3,0.8c-3,0-5.3-0.8-6.7-2.4c-1.4-1.6-2.2-4.2-2.2-7.7v-22.3h-5.1
		v-1.8l5.1-1.4l1.6-7.8h1.6v8.3h10.1v2.7h-10.1v21.8c0,2.6,0.5,4.6,1.4,5.9C198.8,312.5,200.3,313.1,202.3,313.1z"/>
	<path d="M235.9,315.3l-0.8-5.5h-0.3c-1.7,2.2-3.5,3.8-5.3,4.7c-1.8,0.9-4,1.4-6.5,1.4c-3.4,0-6-0.9-7.9-2.6
		c-1.9-1.7-2.8-4.1-2.8-7.2c0-3.4,1.4-6,4.2-7.8c2.8-1.9,6.9-2.8,12.2-3l6.6-0.2v-2.3c0-3.3-0.7-5.8-2-7.4c-1.3-1.7-3.5-2.5-6.4-2.5
		c-3.2,0-6.5,0.9-9.9,2.7l-1.2-2.7c3.8-1.8,7.5-2.7,11.2-2.7c3.8,0,6.6,1,8.5,3c1.9,2,2.8,5,2.8,9.2v22.9H235.9z M223.2,313
		c3.7,0,6.6-1.1,8.7-3.2c2.1-2.1,3.2-5,3.2-8.8v-3.4l-6,0.3c-4.8,0.2-8.3,1-10.4,2.3c-2.1,1.3-3.1,3.3-3.1,6c0,2.2,0.7,3.8,2,5
		C218.9,312.4,220.8,313,223.2,313z"/>
	<path d="M252.5,315.3h-3.1v-49.4h3.1V315.3z"/>
	<path d="M263.6,271.2c0-2,0.7-3,2-3c0.7,0,1.2,0.3,1.5,0.8c0.4,0.5,0.6,1.3,0.6,2.3c0,1-0.2,1.7-0.6,2.3c-0.4,0.6-0.9,0.8-1.5,0.8
		C264.3,274.3,263.6,273.2,263.6,271.2z M267.2,315.3h-3.1v-34.5h3.1V315.3z"/>
	<path d="M300.2,315.3h-24.6v-2l20.5-29.7h-19v-2.8h23.1v2l-20.6,29.7h20.7V315.3z"/>
	<path d="M329.7,315.3l-0.8-5.5h-0.3c-1.7,2.2-3.5,3.8-5.3,4.7c-1.8,0.9-4,1.4-6.5,1.4c-3.4,0-6-0.9-7.9-2.6
		c-1.9-1.7-2.8-4.1-2.8-7.2c0-3.4,1.4-6,4.2-7.8c2.8-1.9,6.9-2.8,12.2-3l6.6-0.2v-2.3c0-3.3-0.7-5.8-2-7.4c-1.3-1.7-3.5-2.5-6.4-2.5
		c-3.2,0-6.5,0.9-9.9,2.7l-1.2-2.7c3.8-1.8,7.5-2.7,11.2-2.7c3.8,0,6.6,1,8.5,3c1.9,2,2.8,5,2.8,9.2v22.9H329.7z M317,313
		c3.7,0,6.6-1.1,8.7-3.2c2.1-2.1,3.2-5,3.2-8.8v-3.4l-6,0.3c-4.8,0.2-8.3,1-10.4,2.3c-2.1,1.3-3.1,3.3-3.1,6c0,2.2,0.7,3.8,2,5
		S314.6,313,317,313z"/>
	<path d="M356.9,315.9c-4.9,0-8.8-1.6-11.6-4.7c-2.8-3.1-4.2-7.4-4.2-13c0-5.7,1.4-10.2,4.3-13.3c2.9-3.2,6.9-4.8,11.9-4.8
		c3,0,5.8,0.5,8.6,1.6l-0.9,2.8c-3-1-5.6-1.5-7.8-1.5c-4.2,0-7.4,1.3-9.6,3.9c-2.2,2.6-3.3,6.4-3.3,11.3c0,4.7,1.1,8.3,3.3,10.9
		c2.2,2.6,5.2,4,9.1,4c3.1,0,6-0.6,8.7-1.7v2.9C363.4,315.4,360.5,315.9,356.9,315.9z M360.3,324.5c0,2.1-0.7,3.7-2.1,4.8
		c-1.4,1.1-3.4,1.6-6,1.6c-1.4,0-2.4-0.1-3-0.3v-2.8c0.6,0.2,1.6,0.3,2.9,0.3c1.7,0,2.9-0.3,3.8-0.9c0.9-0.6,1.3-1.4,1.3-2.5
		c0-2-2-3.3-6.1-3.8l3-5.5h3L355,319C358.6,319.8,360.3,321.6,360.3,324.5z"/>
	<path d="M395,315.3l-0.8-5.5h-0.3c-1.7,2.2-3.5,3.8-5.3,4.7c-1.8,0.9-4,1.4-6.5,1.4c-3.4,0-6-0.9-7.9-2.6c-1.9-1.7-2.8-4.1-2.8-7.2
		c0-3.4,1.4-6,4.2-7.8c2.8-1.9,6.9-2.8,12.2-3l6.6-0.2v-2.3c0-3.3-0.7-5.8-2-7.4c-1.3-1.7-3.5-2.5-6.4-2.5c-3.2,0-6.5,0.9-9.9,2.7
		l-1.2-2.7c3.8-1.8,7.5-2.7,11.2-2.7c3.8,0,6.6,1,8.5,3c1.9,2,2.8,5,2.8,9.2v22.9H395z M390.4,275.8c-0.8,0-1.6-0.2-2.4-0.6
		c-0.8-0.4-1.9-1.1-3.2-2.3c-0.7-0.6-1.3-1-2-1.5c-0.6-0.4-1.3-0.6-2-0.6c-1,0-1.7,0.4-2.4,1.1c-0.6,0.7-1.1,2-1.5,3.9h-2.3
		c0.2-2.3,0.9-4.2,2-5.5c1.1-1.3,2.6-2,4.3-2c1,0,1.9,0.3,2.8,0.8c0.8,0.5,1.7,1.2,2.6,1.9c0.7,0.6,1.4,1.1,2.1,1.6
		c0.7,0.5,1.3,0.7,1.9,0.7c1,0,1.8-0.4,2.4-1.2c0.7-0.8,1.2-2,1.5-3.8h2.4c-0.3,2.5-1.1,4.3-2.2,5.6
		C393.5,275.2,392.1,275.8,390.4,275.8z M382.3,313c3.7,0,6.6-1.1,8.7-3.2c2.1-2.1,3.2-5,3.2-8.8v-3.4l-6,0.3
		c-4.8,0.2-8.3,1-10.4,2.3c-2.1,1.3-3.1,3.3-3.1,6c0,2.2,0.7,3.8,2,5S379.9,313,382.3,313z"/>
	<path d="M437,298c0,5.6-1.4,10-4.1,13.2c-2.7,3.2-6.5,4.7-11.3,4.7c-3,0-5.7-0.7-8-2.2c-2.3-1.5-4.1-3.6-5.3-6.3
		c-1.2-2.7-1.8-5.9-1.8-9.5c0-5.6,1.4-10,4.1-13.2c2.7-3.1,6.5-4.7,11.2-4.7c4.7,0,8.5,1.6,11.2,4.8C435.7,288.1,437,292.4,437,298z
		 M409.8,298c0,4.7,1,8.4,3.1,11.1c2.1,2.7,5,4,8.8,4s6.8-1.3,8.8-4c2.1-2.7,3.1-6.4,3.1-11.1c0-4.8-1.1-8.5-3.2-11.1
		c-2.1-2.6-5.1-3.9-8.9-3.9s-6.7,1.3-8.8,3.9C410.8,289.5,409.8,293.2,409.8,298z"/>
</g>
</svg>
