<?xml version="1.0" encoding="utf-8"?>
<!-- Generator: Adobe Illustrator 22.0.1, SVG Export Plug-In . SVG Version: 6.00 Build 0)  -->
<svg version="1.1" id="Camada_1" xmlns="http://www.w3.org/2000/svg" xmlns:xlink="http://www.w3.org/1999/xlink" x="0px" y="0px"
	 viewBox="0 0 500 500" style="enable-background:new 0 0 500 500;" xml:space="preserve">
<style type="text/css">
	.st0{fill:#777777;}
	.st1{enable-background:new    ;}
</style>
<title>icone-bt-seguro-fianca</title>
<g>
	<path class="st0" d="M250,5c135.4,0,245.1,109.8,245.1,245.2c0,32.7-6.6,65.1-19.3,95.3c-24.9,58.8-71.6,105.5-130.4,130.4
		C315.2,488.5,282.8,495,250,495C114.7,495,5,385.2,5,249.9c0-32.7,6.6-65.1,19.3-95.3C62.6,63.8,151.5,4.9,250,5 M250,0
		C111.9,0,0,111.9,0,250s111.9,250,250,250s250-111.9,250-250S388.1,0,250,0z"/>
</g>
<g class="st1">
	<path d="M178.8,211c0,3.9-1.4,6.9-4.3,9.2c-2.8,2.3-6.6,3.4-11.3,3.4c-5.7,0-10-0.6-13-1.9v-3.2c3.3,1.4,7.6,2.1,12.8,2.1
		c3.8,0,6.8-0.9,9.1-2.6c2.2-1.7,3.3-4,3.3-6.9c0-1.8-0.4-3.2-1.1-4.4c-0.7-1.2-1.9-2.2-3.6-3.2c-1.7-1-4.1-2-7.4-3.1
		c-4.7-1.6-8-3.4-9.8-5.3c-1.8-1.9-2.7-4.4-2.7-7.6c0-3.5,1.4-6.3,4.1-8.5c2.7-2.2,6.2-3.3,10.5-3.3c4.4,0,8.5,0.8,12.3,2.5
		l-1.2,2.8c-3.9-1.6-7.5-2.4-11-2.4c-3.4,0-6.2,0.8-8.2,2.4s-3,3.7-3,6.5c0,1.7,0.3,3.1,0.9,4.2c0.6,1.1,1.6,2.1,3.1,3
		c1.4,0.9,3.9,1.9,7.3,3.2c3.6,1.2,6.3,2.5,8.2,3.6c1.8,1.2,3.1,2.5,4,4C178.4,207.1,178.8,208.9,178.8,211z"/>
	<path d="M201.7,223.6c-5,0-8.9-1.5-11.7-4.6c-2.8-3.1-4.2-7.4-4.2-13c0-5.5,1.4-9.9,4.1-13.2c2.7-3.3,6.4-5,10.9-5
		c4.1,0,7.3,1.4,9.6,4.3c2.3,2.8,3.5,6.7,3.5,11.6v2.5h-24.9c0,4.7,1.1,8.4,3.3,10.9c2.2,2.5,5.3,3.7,9.3,3.7c2,0,3.7-0.1,5.2-0.4
		c1.5-0.3,3.4-0.9,5.7-1.8v2.9c-1.9,0.8-3.7,1.4-5.4,1.7S203.7,223.6,201.7,223.6z M200.8,190.6c-3.3,0-6,1.1-8,3.3
		c-2,2.2-3.2,5.3-3.5,9.5h21.3c0-4-0.9-7.1-2.6-9.4C206.3,191.7,203.9,190.6,200.8,190.6z"/>
	<path d="M250.4,188.5v2.2l-7.1,0.4c1.9,2.4,2.9,5,2.9,7.8c0,3.3-1.1,6-3.3,8.1c-2.2,2.1-5.2,3.1-8.9,3.1c-1.6,0-2.7-0.1-3.3-0.2
		c-1.2,0.7-2.2,1.4-2.9,2.3c-0.7,0.9-1,1.8-1,2.8c0,1.1,0.4,1.9,1.3,2.4s2.2,0.8,4.2,0.8h6c3.7,0,6.6,0.8,8.6,2.3c2,1.5,3,3.8,3,6.7
		c0,3.6-1.5,6.4-4.4,8.4c-3,2-7.2,3-12.6,3c-4.3,0-7.7-0.8-10.1-2.5c-2.4-1.7-3.6-4-3.6-7c0-2.4,0.7-4.3,2.2-5.9
		c1.5-1.6,3.5-2.6,6-3.2c-1-0.4-1.9-1.1-2.5-1.9c-0.6-0.8-0.9-1.8-0.9-2.8c0-2.3,1.5-4.3,4.4-6.1c-2-0.8-3.6-2.1-4.7-3.9
		c-1.1-1.8-1.7-3.8-1.7-6.1c0-3.4,1.1-6.2,3.3-8.3c2.2-2.1,5.1-3.1,8.9-3.1c2.3,0,4,0.2,5.3,0.7H250.4z M222.5,228.8
		c0,4.7,3.5,7.1,10.6,7.1c9.1,0,13.6-2.9,13.6-8.7c0-2.1-0.7-3.6-2.1-4.5c-1.4-0.9-3.7-1.4-6.9-1.4h-5.6
		C225.6,221.3,222.5,223.8,222.5,228.8z M225.1,199.2c0,2.7,0.8,4.7,2.4,6.2c1.6,1.5,3.8,2.2,6.5,2.2c2.9,0,5.1-0.7,6.6-2.2
		s2.3-3.6,2.3-6.3c0-2.9-0.8-5.1-2.4-6.6s-3.8-2.2-6.6-2.2c-2.8,0-4.9,0.8-6.5,2.4C225.9,194.2,225.1,196.4,225.1,199.2z"/>
	<path d="M260.2,188.5v22.3c0,3.5,0.7,6,2.2,7.6s3.7,2.4,6.8,2.4c4.1,0,7.1-1,9.1-3.1c1.9-2.1,2.9-5.4,2.9-10.1v-19h3.1V223h-2.7
		l-0.6-4.8h-0.2c-2.2,3.6-6.2,5.4-12,5.4c-7.8,0-11.8-4.2-11.8-12.6v-22.5H260.2z"/>
	<path d="M309.4,187.8c1.5,0,3,0.1,4.7,0.4l-0.6,3c-1.4-0.4-2.9-0.5-4.5-0.5c-2.9,0-5.4,1.2-7.2,3.7c-1.9,2.5-2.8,5.6-2.8,9.5v19
		h-3.1v-34.5h2.7l0.3,6.2h0.2c1.4-2.5,2.9-4.3,4.5-5.3C305.2,188.3,307.1,187.8,309.4,187.8z"/>
	<path d="M349.6,205.7c0,5.6-1.4,10-4.1,13.2c-2.7,3.2-6.5,4.7-11.3,4.7c-3,0-5.7-0.7-8-2.2c-2.3-1.5-4.1-3.6-5.3-6.3
		c-1.2-2.7-1.8-5.9-1.8-9.5c0-5.6,1.4-10,4.1-13.2c2.7-3.1,6.5-4.7,11.2-4.7c4.7,0,8.5,1.6,11.2,4.8
		C348.3,195.7,349.6,200.1,349.6,205.7z M322.4,205.7c0,4.7,1,8.4,3.1,11.1c2.1,2.7,5,4,8.8,4s6.8-1.3,8.8-4
		c2.1-2.7,3.1-6.4,3.1-11.1c0-4.8-1.1-8.5-3.2-11.1c-2.1-2.6-5.1-3.9-8.9-3.9s-6.7,1.3-8.8,3.9C323.4,197.2,322.4,200.9,322.4,205.7
		z"/>
</g>
<g class="st1">
	<path d="M169.1,315.3h-3.2v-46.4h25.4v3h-22.2v19.7H190v3h-20.9V315.3z"/>
	<path d="M197.2,271.2c0-2,0.7-3,2-3c0.7,0,1.2,0.3,1.5,0.8c0.4,0.5,0.6,1.3,0.6,2.3c0,1-0.2,1.7-0.6,2.3c-0.4,0.6-0.9,0.8-1.5,0.8
		C197.9,274.3,197.2,273.2,197.2,271.2z M200.8,315.3h-3.1v-34.5h3.1V315.3z"/>
	<path d="M233.3,315.3l-0.8-5.5h-0.3c-1.7,2.2-3.5,3.8-5.3,4.7c-1.8,0.9-4,1.4-6.5,1.4c-3.4,0-6-0.9-7.9-2.6
		c-1.9-1.7-2.8-4.1-2.8-7.2c0-3.4,1.4-6,4.2-7.8c2.8-1.9,6.9-2.8,12.2-3l6.6-0.2v-2.3c0-3.3-0.7-5.8-2-7.4c-1.3-1.7-3.5-2.5-6.4-2.5
		c-3.2,0-6.5,0.9-9.9,2.7l-1.2-2.7c3.8-1.8,7.5-2.7,11.2-2.7c3.8,0,6.6,1,8.5,3c1.9,2,2.8,5,2.8,9.2v22.9H233.3z M220.6,313
		c3.7,0,6.6-1.1,8.7-3.2c2.1-2.1,3.2-5,3.2-8.8v-3.4l-6,0.3c-4.8,0.2-8.3,1-10.4,2.3c-2.1,1.3-3.1,3.3-3.1,6c0,2.2,0.7,3.8,2,5
		C216.3,312.4,218.2,313,220.6,313z"/>
	<path d="M270.8,315.3v-22.4c0-3.5-0.7-6-2.2-7.6c-1.5-1.6-3.7-2.4-6.8-2.4c-4.1,0-7.1,1-9.1,3.1c-1.9,2.1-2.9,5.5-2.9,10.1v19h-3.1
		v-34.5h2.7l0.6,4.7h0.2c2.2-3.6,6.2-5.4,12-5.4c7.8,0,11.7,4.2,11.7,12.6v22.6H270.8z"/>
	<path d="M298.9,315.9c-4.9,0-8.8-1.6-11.6-4.7c-2.8-3.1-4.2-7.4-4.2-13c0-5.7,1.4-10.2,4.3-13.3c2.9-3.2,6.9-4.8,11.9-4.8
		c3,0,5.8,0.5,8.6,1.6l-0.9,2.8c-3-1-5.6-1.5-7.8-1.5c-4.2,0-7.4,1.3-9.6,3.9c-2.2,2.6-3.3,6.4-3.3,11.3c0,4.7,1.1,8.3,3.3,10.9
		c2.2,2.6,5.2,4,9.1,4c3.1,0,6-0.6,8.7-1.7v2.9C305.4,315.4,302.5,315.9,298.9,315.9z M302.3,324.5c0,2.1-0.7,3.7-2.1,4.8
		c-1.4,1.1-3.4,1.6-6,1.6c-1.4,0-2.4-0.1-3-0.3v-2.8c0.6,0.2,1.6,0.3,2.9,0.3c1.7,0,2.9-0.3,3.8-0.9c0.9-0.6,1.3-1.4,1.3-2.5
		c0-2-2-3.3-6.1-3.8l3-5.5h3L297,319C300.5,319.8,302.3,321.6,302.3,324.5z"/>
	<path d="M337,315.3l-0.8-5.5h-0.3c-1.7,2.2-3.5,3.8-5.3,4.7c-1.8,0.9-4,1.4-6.5,1.4c-3.4,0-6-0.9-7.9-2.6c-1.9-1.7-2.8-4.1-2.8-7.2
		c0-3.4,1.4-6,4.2-7.8c2.8-1.9,6.9-2.8,12.2-3l6.6-0.2v-2.3c0-3.3-0.7-5.8-2-7.4c-1.3-1.7-3.5-2.5-6.4-2.5c-3.2,0-6.5,0.9-9.9,2.7
		l-1.2-2.7c3.8-1.8,7.5-2.7,11.2-2.7c3.8,0,6.6,1,8.5,3c1.9,2,2.8,5,2.8,9.2v22.9H337z M324.3,313c3.7,0,6.6-1.1,8.7-3.2
		c2.1-2.1,3.2-5,3.2-8.8v-3.4l-6,0.3c-4.8,0.2-8.3,1-10.4,2.3c-2.1,1.3-3.1,3.3-3.1,6c0,2.2,0.7,3.8,2,5S321.9,313,324.3,313z"/>
</g>
</svg>
