<svg id="Camada_1" data-name="Camada 1" xmlns="http://www.w3.org/2000/svg" viewBox="0 0 841.89 249.75"><defs><style>.cls-1{fill:#008cd9;}.cls-2{fill:#a1c6eb;}.cls-3{fill:#00a1e1;}.cls-4{fill:#66b3e6;}.cls-5{fill:#b0afb5;}</style></defs><title>sohtec-2019</title><polygon class="cls-1" points="93.78 153.25 131.11 190.58 56.44 190.58 93.78 153.25"/><polygon class="cls-2" points="131.11 115.92 93.78 78.58 168.44 78.58 131.11 115.92"/><polygon class="cls-3" points="138.58 123.38 93.78 153.25 131.11 190.58 168.44 153.25 138.58 123.38"/><polygon class="cls-4" points="93.78 78.58 56.44 115.92 56.44 115.92 93.78 153.25 131.11 115.92 93.78 78.58"/><path class="cls-5" d="M193.12,180.16c7.82,6.92,20.17,10.42,36.72,10.42,16.22,0,28.35-3.31,36-9.84s11.53-15,11.53-25.27a26.22,26.22,0,0,0-8-19.47c-5.4-5.15-13.69-9.07-24.63-11.64-16.95-3.71-26.58-6.28-29.44-7.84a8.18,8.18,0,0,1-4.61-7.78c0-2.84,1.43-5.34,4.26-7.41s7.23-3,13.59-3c7.67,0,13.2,2,16.46,6a17,17,0,0,1,3.15,8.2h26.15c-1.36-12.2-6.06-20.93-14-25.94-8.24-5.22-19.09-7.86-32.23-7.86-13.79,0-24.62,3.5-32.19,10.41s-11.36,15.23-11.36,24.8c0,8.06,2.41,14.31,7.16,18.55,4.84,4.4,13.35,8.13,25.31,11.09,17.13,4,26.8,6.85,29.53,8.55a8.84,8.84,0,0,1,4.37,8c0,3.63-1.82,6.38-5.39,8.18-3.37,1.69-7.94,2.55-13.58,2.55-9.63,0-16.36-2-20-5.89-2-2.14-3.32-5.51-4-10.31H181.38A33.74,33.74,0,0,0,193.12,180.16Z"/><path class="cls-5" d="M394.85,134.51c0-15.14-4.49-28.45-13.35-39.54s-22.41-16.63-40.42-16.63S309.47,83.94,300.66,95s-13.34,24.4-13.34,39.54c0,15.41,4.49,28.76,13.34,39.69s22.41,16.38,40.42,16.38,31.62-5.51,40.42-16.38S394.85,149.92,394.85,134.51Zm-34.29,25.36C356,165.9,349.43,169,341,169s-15.05-3.06-19.62-9.09-6.82-14.49-6.82-25.36,2.29-19.38,6.82-25.3,11.18-9,19.62-9,15,3,19.58,9,6.77,14.43,6.77,25.3S365.05,153.91,360.56,159.87Z"/><path class="cls-5" d="M733.25,78.34c-18,0-31.61,5.6-40.42,16.63s-13.34,24.4-13.34,39.54c0,15.41,4.48,28.76,13.34,39.69s22.4,16.38,40.42,16.38,31.61-5.51,40.42-16.38a58.65,58.65,0,0,0,11.78-24.84H757.71a31,31,0,0,1-5,10.51c-4.54,6-11.13,9.09-19.58,9.09s-15-3.06-19.63-9.09-6.81-14.48-6.81-25.36,2.29-19.39,6.82-25.3,11.18-9,19.62-9,15,3,19.58,9a30.72,30.72,0,0,1,4.95,10.35h27.7A59.74,59.74,0,0,0,773.67,95C764.86,83.94,751.26,78.34,733.25,78.34Z"/><path class="cls-5" d="M667.65,134.51c0-15.14-4.49-28.45-13.35-39.54s-22.4-16.63-40.41-16.63S582.28,83.94,573.47,95s-13.35,24.4-13.35,39.54c0,15.41,4.49,28.76,13.34,39.69s22.41,16.38,40.43,16.38,31.61-5.51,40.42-16.38a58.3,58.3,0,0,0,9.35-16.37h-29c-.4.67-.84,1.38-1.33,2-4.55,6-11.14,9.09-19.58,9.09s-15-3.06-19.63-9.09c-3-4-5.1-9.28-6.09-15.64l-.17-1.06h79.21A72.77,72.77,0,0,0,667.65,134.51Zm-79.73-8.75.17-1.06c1-6.31,3-11.53,6.07-15.49,4.58-6,11.18-9,19.63-9s15,3,19.58,9c3,4,5,9.18,6,15.49l.17,1.06Z"/><path class="cls-5" d="M451.62,98.3c7.67,0,13.21,2,16.46,6,2.06,2.63,3.12,6.13,3.25,10.68h0v75.55h26.14V115.93c0-13-5.51-24.45-14-29.31-9.19-5.23-20-7.88-32.26-7.88a62.15,62.15,0,0,0-16.1,2l-1.15.31V58.67H413.86a6.08,6.08,0,0,0-6.08,6.07V190.57h26.15l-.06-81.18C433.87,99.7,445.26,98.3,451.62,98.3Z"/><path class="cls-5" d="M518.4,96.57l0,0,.09-.09h0l18.09-18.09h-.28V58.67H516.51a6.08,6.08,0,0,0-6.08,6.07v39.8Z"/><path class="cls-5" d="M553.65,96.5V78.41h-2.77l-40.45,27v64.87c0,6.39,1.5,11.17,4.45,14.18,4.64,4.82,13.51,7,26.41,6.6l12.36-.46v-19c-.61,0-1.22.06-1.84.08-1,0-1.88.05-2.74.05-8,0-10-1.07-10.84-1.87-1.33-1.29-2-4.11-2-8.86V96.5Z"/></svg>