<?xml version="1.0" standalone="no"?>
<!DOCTYPE svg PUBLIC "-//W3C//DTD SVG 20010904//EN"
 "http://www.w3.org/TR/2001/REC-SVG-20010904/DTD/svg10.dtd">
<svg version="1.0" xmlns="http://www.w3.org/2000/svg"
 width="301.000000pt" height="121.000000pt" viewBox="0 0 301.000000 121.000000"
 preserveAspectRatio="xMidYMid meet">

<g transform="translate(0.000000,121.000000) scale(0.100000,-0.100000)"
fill="#000000" stroke="none">
<path d="M110 1000 c0 -107 4 -170 10 -170 6 0 10 20 10 45 0 45 0 45 35 45
42 0 90 22 99 45 8 21 8 139 0 160 -10 25 -58 45 -109 45 l-45 0 0 -170z m124
118 c21 -29 21 -117 0 -146 -12 -17 -25 -22 -60 -22 l-44 0 0 95 0 95 44 0
c35 0 48 -5 60 -22z"/>
<path d="M1050 1022 c0 -117 3 -152 16 -170 17 -25 34 -29 34 -7 0 8 -4 15
-10 15 -6 0 -10 58 -10 155 0 131 -2 155 -15 155 -13 0 -15 -23 -15 -148z"/>
<path d="M710 1110 c0 -11 -4 -20 -10 -20 -5 0 -10 -7 -10 -15 0 -8 5 -15 10
-15 6 0 10 -38 10 -94 0 -90 1 -96 26 -115 31 -25 74 -28 74 -6 0 10 -10 15
-30 15 -40 0 -50 23 -50 119 l0 81 35 0 c24 0 35 5 35 15 0 10 -11 15 -35 15
-28 0 -35 4 -35 20 0 11 -4 20 -10 20 -5 0 -10 -9 -10 -20z"/>
<path d="M339 1061 c-27 -27 -29 -35 -29 -101 0 -66 2 -74 29 -101 33 -33 50
-35 90 -14 36 18 41 32 41 115 0 83 -5 97 -41 115 -40 21 -57 19 -90 -14z m95
-23 c21 -30 21 -126 0 -156 -16 -24 -44 -28 -75 -12 -16 9 -19 22 -19 85 0 54
4 78 16 89 22 23 60 20 78 -6z"/>
<path d="M510 958 c0 -79 4 -128 10 -128 6 0 10 38 10 93 0 68 4 99 16 115 18
25 56 29 78 7 25 -25 47 -17 28 11 -14 21 -49 33 -95 31 l-47 -2 0 -127z"/>
<path d="M880 1070 c-20 -20 -27 -50 -12 -50 4 0 13 9 20 20 23 37 92 21 92
-21 0 -13 -12 -20 -45 -25 -48 -7 -85 -40 -85 -75 0 -57 58 -102 105 -81 16 7
25 8 25 2 0 -6 7 -10 15 -10 12 0 15 18 15 105 0 99 -2 107 -25 130 -30 31
-77 33 -105 5z m100 -143 c0 -49 -13 -67 -50 -67 -35 0 -50 17 -50 56 0 26 5
34 28 42 15 6 37 11 50 11 19 1 22 -4 22 -42z"/>
<path d="M51 578 c0 -7 31 -119 68 -248 91 -314 86 -314 176 -3 38 131 70 244
73 251 2 7 -4 12 -16 12 -23 0 -25 -6 -93 -240 -22 -80 -44 -149 -48 -153 -4
-4 -34 83 -66 193 -48 166 -61 200 -77 200 -10 0 -18 -6 -17 -12z"/>
<path d="M2048 545 c-21 -20 -38 -37 -38 -40 0 -3 13 -5 28 -5 19 0 40 12 67
40 l39 40 -29 0 c-20 0 -43 -12 -67 -35z"/>
<path d="M740 505 c0 -24 -5 -35 -15 -35 -8 0 -15 -9 -15 -20 0 -11 7 -20 15
-20 13 0 15 -22 15 -137 0 -116 3 -141 18 -159 25 -31 55 -44 101 -44 37 0 41
2 41 25 0 23 -4 25 -43 25 -70 0 -77 14 -77 163 l0 127 45 0 c38 0 45 3 45 20
0 17 -7 20 -45 20 -45 0 -45 0 -45 35 0 28 -4 35 -20 35 -16 0 -20 -7 -20 -35z"/>
<path d="M1565 520 c-4 -7 -3 -16 3 -22 14 -14 45 -2 40 15 -6 16 -34 21 -43
7z"/>
<path d="M2570 510 c0 -13 7 -20 20 -20 13 0 20 7 20 20 0 13 -7 20 -20 20
-13 0 -20 -7 -20 -20z"/>
<path d="M461 452 c-53 -29 -71 -72 -71 -172 0 -100 18 -143 71 -172 41 -22
68 -23 114 -4 35 15 75 67 75 99 0 24 -37 22 -45 -3 -30 -93 -159 -72 -172 28
l-6 42 112 0 111 0 0 48 c0 61 -26 111 -70 134 -44 23 -76 23 -119 0z m120
-61 c16 -16 29 -39 29 -50 0 -20 -6 -21 -91 -21 l-91 0 6 28 c4 15 18 37 32
50 36 31 79 29 115 -7z"/>
<path d="M1023 455 c-56 -24 -73 -66 -73 -175 0 -112 18 -152 77 -177 72 -29
151 9 172 85 9 30 8 32 -15 32 -17 0 -24 -6 -24 -19 0 -28 -47 -61 -87 -61
-47 0 -83 40 -83 91 l0 38 108 3 107 3 -1 53 c-2 60 -21 94 -67 122 -37 23
-70 25 -114 5z m112 -60 c14 -13 25 -36 25 -50 0 -25 -1 -25 -85 -25 -84 0
-85 0 -85 25 0 38 42 75 85 75 25 0 44 -8 60 -25z"/>
<path d="M1270 280 c0 -183 1 -190 20 -190 19 0 20 7 20 135 0 173 14 205 86
205 14 0 36 -11 50 -25 24 -25 54 -25 54 0 0 20 -48 54 -86 61 -18 3 -48 1
-66 -5 -22 -8 -34 -8 -36 -1 -2 5 -12 10 -23 10 -18 0 -19 -9 -19 -190z"/>
<path d="M1670 280 c0 -183 1 -190 20 -190 19 0 20 7 20 140 0 136 1 142 25
165 31 32 74 33 103 2 19 -21 22 -35 24 -162 3 -138 3 -140 26 -143 l24 -4 -4
144 c-4 166 -15 200 -76 225 -29 12 -45 13 -77 5 -24 -7 -41 -7 -43 -1 -2 5
-12 9 -23 9 -18 0 -19 -9 -19 -190z"/>
<path d="M2014 451 c-39 -24 -62 -79 -37 -88 9 -4 18 -2 21 5 2 6 12 22 23 36
39 49 139 25 139 -33 0 -16 -11 -22 -57 -31 -98 -20 -103 -22 -123 -47 -26
-34 -27 -107 0 -150 27 -45 85 -62 140 -40 34 13 40 13 40 1 0 -8 9 -14 20
-14 19 0 20 7 20 145 0 111 -4 153 -15 175 -30 58 -112 77 -171 41z m143 -207
c-7 -69 -35 -104 -82 -104 -45 0 -75 32 -75 79 0 21 6 44 13 50 16 12 80 29
121 30 l29 1 -6 -56z"/>
<path d="M2280 280 c0 -183 1 -190 20 -190 19 0 20 7 20 145 0 142 1 147 25
170 33 34 78 33 110 -1 21 -22 27 -25 40 -14 14 12 13 16 -11 41 -33 34 -81
45 -126 30 -22 -8 -34 -8 -36 -1 -2 5 -12 10 -23 10 -18 0 -19 -9 -19 -190z"/>
<path d="M2735 461 c-28 -12 -52 -41 -60 -73 -6 -24 -4 -28 14 -28 12 0 21 6
21 15 0 48 98 75 133 37 27 -29 22 -61 -10 -67 -148 -31 -163 -43 -163 -125 0
-62 15 -92 60 -115 37 -19 63 -19 100 0 27 14 30 14 30 0 0 -8 9 -15 20 -15
19 0 20 7 20 156 l0 156 -34 34 c-27 27 -42 34 -72 33 -22 0 -48 -4 -59 -8z
m125 -218 c0 -68 -25 -103 -75 -103 -50 0 -75 24 -75 74 0 50 11 62 66 75 82
19 84 18 84 -46z"/>
<path d="M1570 270 c0 -173 1 -180 20 -180 19 0 20 7 20 180 0 173 -1 180 -20
180 -19 0 -20 -7 -20 -180z"/>
<path d="M2570 269 l0 -180 23 3 c22 3 22 5 25 181 l2 177 -25 0 -25 0 0 -181z"/>
</g>
</svg>
