<svg id="Camada_1" data-name="Camada 1" xmlns="http://www.w3.org/2000/svg" xmlns:xlink="http://www.w3.org/1999/xlink" viewBox="0 0 1326.42 359.67"><defs><style>.cls-1{fill:url(#Gradiente_sem_nome_2);}.cls-2{fill:url(#Gradiente_sem_nome_2-2);}.cls-3{fill:url(#Gradiente_sem_nome_2-3);}.cls-4{fill:url(#Gradiente_sem_nome_2-4);}.cls-5{fill:url(#Gradiente_sem_nome_2-5);}.cls-6{fill:url(#Gradiente_sem_nome_2-6);}.cls-7{fill:url(#Gradiente_sem_nome_2-7);}.cls-8{fill:url(#Gradiente_sem_nome_2-8);}.cls-9{fill:url(#Gradiente_sem_nome_2-9);}</style><linearGradient id="Gradiente_sem_nome_2" x1="43.44" y1="247.29" x2="1407.47" y2="112.95" gradientUnits="userSpaceOnUse"><stop offset="0" stop-color="#009be6"/><stop offset="0.85" stop-color="#176ebb"/></linearGradient><linearGradient id="Gradiente_sem_nome_2-2" x1="47.86" y1="177.68" x2="1411.9" y2="43.34" xlink:href="#Gradiente_sem_nome_2"/><linearGradient id="Gradiente_sem_nome_2-3" x1="52.67" y1="226.48" x2="1416.7" y2="92.14" xlink:href="#Gradiente_sem_nome_2"/><linearGradient id="Gradiente_sem_nome_2-4" x1="54.28" y1="242.84" x2="1418.31" y2="108.5" xlink:href="#Gradiente_sem_nome_2"/><linearGradient id="Gradiente_sem_nome_2-5" x1="60.05" y1="301.49" x2="1424.09" y2="167.16" xlink:href="#Gradiente_sem_nome_2"/><linearGradient id="Gradiente_sem_nome_2-6" x1="58.3" y1="283.64" x2="1422.33" y2="149.3" xlink:href="#Gradiente_sem_nome_2"/><linearGradient id="Gradiente_sem_nome_2-7" x1="54.49" y1="244.99" x2="1418.53" y2="110.66" xlink:href="#Gradiente_sem_nome_2"/><linearGradient id="Gradiente_sem_nome_2-8" x1="48.91" y1="188.31" x2="1412.94" y2="53.98" xlink:href="#Gradiente_sem_nome_2"/><linearGradient id="Gradiente_sem_nome_2-9" x1="55.61" y1="274.63" x2="1422.62" y2="140" xlink:href="#Gradiente_sem_nome_2"/></defs><title>marca-sohtec</title><polygon class="cls-1" points="161.51 223.73 104.27 280.98 218.76 280.98 276.01 223.73 230.21 177.93 161.51 223.73"/><polygon class="cls-2" points="276.01 109.23 161.51 109.23 104.27 166.48 104.27 166.48 161.51 223.73 218.76 166.48 276.01 109.23"/><path class="cls-3" d="M393.12,179.43c-26-5.69-40.77-9.63-45.15-12-4.69-2.44-7.07-6.45-7.07-11.92,0-4.37,2.2-8.19,6.54-11.37s11.07-4.64,20.83-4.64c11.76,0,20.25,3.12,25.24,9.25,2.49,3.18,4.1,7.4,4.83,12.58h40.1c-2.09-18.71-9.3-32.09-21.44-39.78-12.64-8-29.26-12-49.41-12-21.16,0-37.77,5.37-49.37,16s-17.41,23.36-17.41,38c0,12.37,3.69,21.95,11,28.46,7.43,6.74,20.48,12.46,38.81,17,26.27,6.21,41.09,10.51,45.29,13.12a13.54,13.54,0,0,1,6.69,12.18c0,5.57-2.78,9.8-8.26,12.55-5.17,2.6-12.18,3.91-20.83,3.91-14.76,0-25.08-3-30.67-9-3.09-3.28-5.1-8.47-6.11-15.82H295.85c.34,15.74,6.39,28.92,18,39.17,12,10.6,30.94,16,56.32,16,24.87,0,43.47-5.08,55.27-15.1s17.68-23,17.68-38.74c0-11.89-4.11-21.94-12.22-29.85C422.6,189.38,409.88,183.37,393.12,179.43Z"/><path class="cls-4" d="M540.74,108.87c-27.62,0-48.47,8.57-62,25.49S458.3,171.77,458.3,195c0,23.62,6.88,44.1,20.46,60.86s34.36,25.12,62,25.12,48.48-8.45,62-25.12,20.46-37.24,20.46-60.86c0-23.23-6.89-43.63-20.47-60.64S568.36,108.87,540.74,108.87ZM570.62,236c-7,9.75-17.08,14.69-30,14.69s-23.08-4.94-30.1-14.69S500,212.57,500,195s3.52-31.35,10.46-40.92,17.14-14.61,30.09-14.61,23,4.92,30,14.62S581,177.42,581,195,577.5,226.36,570.62,236Z"/><path class="cls-5" d="M1179.61,217.77a47.75,47.75,0,0,1-7.62,16.11c-7,9.24-17.08,13.93-30,13.93s-23.08-4.68-30.1-13.93-10.45-22.21-10.45-38.88,3.52-29.73,10.45-38.81,17.15-13.86,30.1-13.86,23,4.67,30,13.86a47.24,47.24,0,0,1,7.59,15.88h42.49a91.61,91.61,0,0,0-18-37.71c-13.51-16.92-34.36-25.49-62-25.49s-48.47,8.57-62,25.49-20.46,37.41-20.46,60.64c0,23.62,6.88,44.1,20.46,60.86s34.36,25.12,62,25.12,48.48-8.45,62-25.12a89.82,89.82,0,0,0,18.06-38.09Z"/><path class="cls-6" d="M959.07,108.87c-27.62,0-48.47,8.57-62,25.49S876.63,171.77,876.63,195c0,23.62,6.88,44.1,20.46,60.86s34.36,25.12,62,25.12,48.48-8.45,62-25.12a89.44,89.44,0,0,0,14.35-25.11H991a32.65,32.65,0,0,1-2,3.12c-7,9.25-17.08,13.94-30,13.94s-23.08-4.68-30.1-13.93c-4.67-6.15-7.81-14.23-9.33-24l-.26-1.62h121.46a109.83,109.83,0,0,0,.82-13.27c0-23.23-6.88-43.63-20.46-60.64S986.69,108.87,959.07,108.87Zm-39.82,72.71.26-1.63c1.53-9.68,4.67-17.67,9.32-23.76,7-9.19,17.14-13.86,30.09-13.86S982,147,989,156.19c4.61,6.09,7.72,14.09,9.24,23.76l.25,1.63Z"/><path class="cls-7" d="M759,121.55c-14.07-8-30.72-12.08-49.46-12.08a95.82,95.82,0,0,0-24.68,3l-1.77.48V78.69H652.35A9.33,9.33,0,0,0,643,88V281h40.09L683,156.47c0-14.86,17.47-17,27.23-17,11.76,0,20.25,3.12,25.24,9.25,3.16,4,4.79,9.4,5,16.38h0V281h40.08V166.51C780.57,146.65,772.12,129,759,121.55Z"/><path class="cls-8" d="M812.59,136.85l.14-.14h0L840.5,109h-.44V78.69H809.75A9.33,9.33,0,0,0,800.43,88v61l12.22-12.22Z"/><path class="cls-9" d="M800.43,150.32v99.47c0,28.73,10.28,31.16,45.78,31.16h20.5V250.67c-16,0-26.71,0-26.65-15.18V136.71h26.65V109h-4.25Z"/></svg>